<?xml version="1.0" encoding="utf-8"?>
<!-- Generator: Adobe Illustrator 24.2.0, SVG Export Plug-In . SVG Version: 6.00 Build 0)  -->
<svg version="1.1" id="Layer_1" xmlns="http://www.w3.org/2000/svg" xmlns:xlink="http://www.w3.org/1999/xlink" x="0px" y="0px"
	 viewBox="0 0 512 512" style="enable-background:new 0 0 512 512;" xml:space="preserve">
<style type="text/css">
	.st0{fill:#A87777;}
</style>
<g id="Out_line">
	<path class="st0" d="M35,396.7c-2-4.3-3-8.9-3-13.7v-9.7C32,290,45.1,207.2,70.9,128h175.2c-7.4,23.1-13.7,46.7-18.9,70.3l15.6,3.5
		c5.5-24.8,12.3-49.6,20.1-73.7H280c17.7,0,32-14.3,32-32V72c0-4.4-3.6-8-8-8l0,0h-40c0-17.7,14.3-32,32-32h1.5
		c14.4,0,27,9.7,30.9,23.6l11.8,43.2c2.8,10.2,5.4,20.7,7.8,31.1l15.6-3.6c-2.4-10.6-5.1-21.2-8-31.7l-11.8-43.2
		C338,30.5,319.1,16.1,297.4,16H80c-26.5,0-48,21.5-48,48v32c0,14,9.2,26.4,22.6,30.6C29,206.3,16,289.5,16,373.3v9.7
		c0,7,1.5,13.9,4.4,20.3L35,396.7z M296,80v16c0,8.8-7.2,16-16,16s-16-7.2-16-16V80H296z M48,96V64c0-17.7,14.3-32,32-32h180.3
		c-7.9,8.8-12.3,20.2-12.3,32v32c0,5.6,1.5,11.1,4.3,16H64C55.2,112,48,104.8,48,96z"/>
	<path class="st0" d="M417.8,228.5l-3.6,15.6c48.6,11.4,65.8,26.5,65.8,35.9c0,8.1-11.6,17.6-32.9,26c-3.7-11.9-18.8-21.7-44.8-29.3
		l-4.5,15.4c22.2,6.5,33,14.2,34.1,19.1C400.1,320.8,353.7,328,296,328s-104.1-7.2-135.9-16.8c1.6-7.5,24.4-20.4,73-27.1l-2.2-15.9
		c-24.4,3.4-45.1,8.6-59.9,15.1c-14.6,6.4-23.3,14-26.1,22.6c-21.4-8.3-32.9-17.8-32.9-25.9c0-3.4,2.8-15.4,38.1-27.9
		c26.9-9.6,64.7-16.3,106.4-18.9l-1-16c-43.1,2.7-82.4,9.7-110.8,19.8C104.5,251.3,96,268.3,96,280c0,16.9,3.1,33.6,9.2,49.3
		l16.2,41.6l14.9-5.8l-16.2-41.6c-1.8-4.7-3.4-9.5-4.6-14.4c10.3,6.9,24.5,13,42.4,18.2c37,10.8,86,16.7,138,16.7s101-5.9,138-16.7
		c18-5.2,32.2-11.4,42.4-18.2c-1.2,4.9-2.8,9.7-4.6,14.4l-27.5,70.6c-2.6,6.7-6.2,13-10.6,18.6l12.5,9.9c5.5-6.9,9.8-14.5,13-22.7
		l27.5-70.6c6.1-15.7,9.3-32.4,9.2-49.3C496,251.1,447,235.3,417.8,228.5z"/>
	<path class="st0" d="M354.3,166.6c-39.3,14.3-71.6,43.1-90.5,80.4l-23,46l14.3,7.2l23-46c16-31.7,42.8-56.6,75.7-70.2
		c0.4,1.6,0.9,3.1,1.5,4.6c-22.1,18.6-41.9,43.9-56.3,72l-23.5,45.8l14.2,7.3l23.6-45.8c13.4-26.1,31.6-49.5,51.9-66.7
		c0.9,0.7,1.8,1.3,2.8,1.9c1.1,0.6,2.2,1.2,3.3,1.7c-3.2,6-6.5,12.2-10,18.7c-8.7,16.3-17.7,33.2-27,50.7l-18.1,34.2l14.1,7.5
		l18.1-34.2c9.2-17.5,18.2-34.4,26.9-50.6c4.1-7.7,8.1-15.1,11.9-22.2c1.6,27.4-4.5,54.7-17.7,78.8l-11.2,20.6l14,7.7l11.2-20.6
		c15.7-28.7,22.4-61.4,19.1-94c3.3-2.4,6-5.4,8.1-8.8l63.7-104.2c9-14.8,4.4-34-10.4-43.1c-14.8-9-34-4.4-43,10.4l-63.7,104.2
		C356.1,161.9,355.1,164.2,354.3,166.6z M371.1,168.1l63.7-104.2c4.4-7.2,13.8-9.5,21.1-5.1s9.5,13.8,5.1,21.1c0,0,0,0,0,0
		l-63.7,104.2c-4.4,7.2-13.8,9.5-21.1,5.1C369,184.8,366.7,175.4,371.1,168.1C371.1,168.1,371.1,168.1,371.1,168.1z"/>
	<path class="st0" d="M414.3,417.9c-6.2-5.7-14.5-8.5-22.9-7.7l-7.5,0.7C373.7,394.2,355.5,384,336,384H104
		c-19.6,0-37.7,10.2-47.8,26.9l-7.5-0.7c-16.5-1.5-31,10.6-32.5,27.1s10.6,31,27.1,32.5c0.9,0.1,1.8,0.1,2.7,0.1
		c0.9,0,1.8,0,2.7-0.1l7.5-0.7c10.2,16.6,28.3,26.8,47.8,26.9h232c14.9,0,29.1-5.9,39.6-16.4c3.2-3.2,5.9-6.7,8.3-10.5l7.5,0.7
		c0.9,0.1,1.8,0.1,2.7,0.1c16.5,0,29.9-13.4,29.9-30C424,431.6,420.5,423.6,414.3,417.9z M47.2,453.9c-7.7,0.7-14.4-5-15.1-12.6
		c-0.7-7.7,5-14.4,12.6-15.1c0.4,0,0.8-0.1,1.2-0.1c0.4,0,0.9,0,1.3,0.1l48.2,4.4c5.2,0.5,9.1,5.1,8.6,10.3c-0.4,4.6-4,8.2-8.6,8.6
		l0,0L47.2,453.9z M74.9,467.4l21.9-2l0,0c14-1.2,24.4-13.6,23.2-27.6c-1.1-12.4-10.9-22.1-23.2-23.2l-21.9-2
		c0.3-0.3,0.6-0.6,0.8-0.9c15.6-15.6,40.9-15.6,56.6,0c15.6,15.6,15.6,41,0,56.6c-7.5,7.5-17.7,11.7-28.3,11.7
		C93,480,82.5,475.4,74.9,467.4z M364.3,468.3c-7.5,7.5-17.7,11.8-28.3,11.7H143.1c22.1-21.5,22.5-56.9,1-79c-0.3-0.3-0.6-0.7-1-1
		H336c22.1,0,40,17.9,40,40C376,450.6,371.8,460.8,364.3,468.3z M394.1,453.9c-0.4,0-0.9,0-1.3-0.1l-2.5-0.2c2.2-9,2.2-18.3,0-27.3
		l2.5-0.2c7.7-0.7,14.4,5,15.1,12.6s-5,14.4-12.6,15.1C394.9,453.9,394.5,453.9,394.1,453.9L394.1,453.9z"/>
</g>
</svg>
