<?xml version="1.0" encoding="utf-8"?>
<!-- Generator: Adobe Illustrator 24.2.0, SVG Export Plug-In . SVG Version: 6.00 Build 0)  -->
<svg version="1.1" id="Outline" xmlns="http://www.w3.org/2000/svg" xmlns:xlink="http://www.w3.org/1999/xlink" x="0px" y="0px"
	 viewBox="0 0 512 512" style="enable-background:new 0 0 512 512;" xml:space="preserve">
<style type="text/css">
	.st0{fill:#A87777;}
</style>
<path class="st0" d="M488,272h-18.3c30.9-52.8,26.3-114.1,25.7-120.4V120c0-4.4-3.6-8-8-8h-8.6c-10.5-26.7-30-50.5-55.3-67.5
	C395.8,25.9,362.8,16,328,16c-0.8,0-1.7,0-2.5,0c-0.5,0-1,0-1.5,0c-1.9,0-3.8,0.1-5.6,0.3C234.6,20.8,168,83.5,168,160
	c0,0,0,0.1,0,0.1c-4.1-0.1-8.3,0.1-12.3,0.8c-4.7,0.9-9,3.2-12.4,6.6c-1.9,1.8-4,3.4-6.2,4.8c1.8-12.7,6.9-32.9,20.6-46.6
	c3.1-3.1,3.1-8.2,0-11.3c-3.1-3.1-8.2-3.1-11.3,0c-7.6,7.8-13.6,17.1-17.6,27.3c-6.6-8.6-16.9-13.7-27.8-13.7H88c-4.4,0-8,3.6-8,8
	v21c0,1.2,0.1,2.4,0.2,3.6c-8.1,1-18.7,3.8-27.9,10.6C35.5,183.7,32,203.1,32,217.2c0,18.6,2.8,37.1,8.2,54.8H24c-4.4,0-8,3.6-8,8
	v208c0,4.4,3.6,8,8,8h464c4.4,0,8-3.6,8-8V280C496,275.6,492.4,272,488,272z M463.5,128h16v16h-16V128z M414.7,57.8
	c20.8,13.9,37,32.9,46.8,54.2h-6c-4.4,0-8,3.6-8,8v30.6c-1.8,4.8-10.1,24.2-29.7,43.8c-1.7,1.7-3.5,3.4-5.3,5
	c2.3-13,3.5-26.1,3.4-39.3c0-37.8-9.2-73.4-25.8-100.4c-4.6-7.6-10.1-14.7-16.4-21C388.3,42.9,402.1,49.4,414.7,57.8z M336,33.6
	c15.1,4.1,29.2,16,40.6,34.4c15.1,24.4,23.4,57.1,23.4,92c0.1,18.2-2.3,36.3-7.1,53.9l0.6,0.2c-16.8,10.8-36,18.3-57.5,22.4
	L336,33.6L336,33.6z M429.1,205.7c13.3-13.1,24-28.6,31.8-45.7h19c0.5,18.8-0.9,70.6-29.1,112H302.2c1.2-5.3,1.8-10.6,1.8-16
	c0-0.1,0-0.1,0-0.2C367.8,253.7,407.1,227.7,429.1,205.7z M319.6,32.2l0.4,0v206.5c-5.8,0.6-11.8,1-17.8,1.2
	c-6.1-26.3-26.4-47-52.5-53.7c-1.1-8.7-1.6-17.4-1.6-26.2c0-34.9,8.3-67.5,23.4-92C284.7,46.5,301.7,34,319.6,32.2z M288,256
	c0,5.4-0.8,10.8-2.3,16H178.3c-8.8-29.6,8-60.8,37.7-69.7s60.8,8,69.7,37.7C287.2,245.2,288,250.6,288,256z M270.3,42.8
	c-4.6,5.3-8.8,10.9-12.5,16.9C241.2,86.6,232,122.2,232,160c0,8,0.4,16.1,1.3,24c-0.4,0-0.8,0-1.3,0c-5.2,0-10.4,0.6-15.5,1.7
	c-7.8-13.7-20.4-20.4-32.5-23.5c0-0.7,0-1.5,0-2.2C184,107.7,219.5,62.6,270.3,42.8z M96,144h5c10.5,0,19,8.5,19,19v13h-5
	c-10.5,0-19-8.5-19-19V144z M85.7,176.1c6.5,9.9,17.5,15.9,29.3,15.9c0,0,12.4,0.2,12.9,0.2h0v0c9.1,0,21.1-7.8,26.6-13.4
	c1.1-1.1,2.5-1.9,4-2.2c0.3-0.1,28.9-4.7,42.4,14.4c-30.4,14.5-46.7,48.1-39.2,81H57c-6-17.7-9-36.2-9-54.8
	C48,184,70.6,177,85.7,176.1z M480,480H32v-32h448V480z M480,432H32v-16h448V432z M480,400H32v-32h448V400z M480,352H32v-16h448V352
	z M480,320H32v-32h448V320z"/>
</svg>
