<?xml version="1.0" encoding="utf-8"?>
<!-- Generator: Adobe Illustrator 24.2.0, SVG Export Plug-In . SVG Version: 6.00 Build 0)  -->
<svg version="1.1" id="Layer_1" xmlns="http://www.w3.org/2000/svg" xmlns:xlink="http://www.w3.org/1999/xlink" x="0px" y="0px"
	 viewBox="0 0 62 59" style="enable-background:new 0 0 62 59;" xml:space="preserve">
<style type="text/css">
	.st0{fill:url(#Path_29_1_);}
	.st1{fill:url(#Path_30_1_);}
	.st2{fill:#A87777;}
</style>
<g id="love-letter" transform="translate(-1 -2.5)">
	
		<linearGradient id="Path_29_1_" gradientUnits="userSpaceOnUse" x1="-353.4098" y1="310.5065" x2="-352.3638" y2="309.6385" gradientTransform="matrix(38 0 0 -25.646 13449 7973.043)">
		<stop  offset="0" style="stop-color:#FFFFFF"/>
		<stop  offset="0.154" style="stop-color:#D3FBED"/>
		<stop  offset="0.341" style="stop-color:#FAEEDF"/>
		<stop  offset="1" style="stop-color:#F3E3F8"/>
	</linearGradient>
	<path id="Path_29" class="st0" d="M54,11.5H22c-1.7,0-3,1.3-3,3v13.1l19,9.5l19-9.5V14.5C57,12.8,55.7,11.5,54,11.5z M27,17.5h22
		c0.6,0,1,0.4,1,1s-0.4,1-1,1H27c-0.6,0-1-0.4-1-1S26.4,17.5,27,17.5z M50,25.5H26c-0.6,0-1-0.4-1-1s0.4-1,1-1h24c0.6,0,1,0.4,1,1
		S50.6,25.5,50,25.5z"/>
	
		<linearGradient id="Path_30_1_" gradientUnits="userSpaceOnUse" x1="-355.6969" y1="312.9348" x2="-354.7569" y2="311.9348" gradientTransform="matrix(50 0 0 -34.0057 17799.0117 10668.3184)">
		<stop  offset="0" style="stop-color:#FFFFFF"/>
		<stop  offset="0.154" style="stop-color:#D3FBED"/>
		<stop  offset="0.341" style="stop-color:#FAEEDF"/>
		<stop  offset="1" style="stop-color:#F3E3F8"/>
	</linearGradient>
	<path id="Path_30" class="st1" d="M61.6,27.6L38,39.4L14.4,27.6c-0.5-0.2-1.1,0-1.3,0.4C13,28.2,13,28.3,13,28.5v30
		c0,1.7,1.3,3,3,3h44c1.7,0,3-1.3,3-3v-30c0-0.6-0.4-1-1-1C61.8,27.5,61.7,27.5,61.6,27.6z M58,57.5H38c-0.6,0-1-0.4-1-1s0.4-1,1-1
		h20c0.6,0,1,0.4,1,1S58.6,57.5,58,57.5z M58,53.5H46c-0.6,0-1-0.4-1-1s0.4-1,1-1h12c0.6,0,1,0.4,1,1S58.6,53.5,58,53.5z"/>
	<g id="Group_70">
		<path id="Path_31" class="st2" d="M47,8.3c-2.7-1.5-5.7-0.9-8,1.5V5.5c0-1.7-1.3-3-3-3H4c-1.7,0-3,1.3-3,3v41c0,1.7,1.3,3,3,3h32
			c1.7,0,3-1.3,3-3V30.2c6.9-2.7,12-8.5,12-13.9v-1.1C51,12.3,49.5,9.7,47,8.3z M37,46.5c0,0.6-0.4,1-1,1H4c-0.6,0-1-0.4-1-1v-41
			c0-0.6,0.4-1,1-1h32c0.6,0,1,0.4,1,1v4.3c-2.4-2.4-5.3-3-8-1.5c-2.5,1.4-4,4.1-4,6.9v1.1c0,5.4,5.1,11.3,12,13.9V46.5z M49,16.3
			c0,4-4.1,9.6-11,12.2c-6.9-2.5-11-8.1-11-12.2v-1.1c0-2.1,1.1-4.1,2.9-5.2c2.9-1.6,5.5,0.4,7.2,3.2c0.3,0.5,0.9,0.6,1.4,0.4
			c0.2-0.1,0.3-0.2,0.4-0.4c2-3.4,4.7-4.6,7.2-3.2c1.9,1,3,3,2.9,5.2V16.3z"/>
		<path id="Path_32" class="st2" d="M11,22.5h11c0.6,0,1-0.4,1-1s-0.4-1-1-1H11c-0.6,0-1,0.4-1,1S10.4,22.5,11,22.5z"/>
		<path id="Path_33" class="st2" d="M11,13.5h11c0.6,0,1-0.4,1-1s-0.4-1-1-1H11c-0.6,0-1,0.4-1,1S10.4,13.5,11,13.5z"/>
		<path id="Path_34" class="st2" d="M11,29.5c-0.6,0-1,0.4-1,1s0.4,1,1,1h18c0.6,0,1-0.4,1-1s-0.4-1-1-1H11z"/>
		<path id="Path_35" class="st2" d="M29,40.5H11c-0.6,0-1-0.4-1-1s0.4-1,1-1h18c0.6,0,1,0.4,1,1S29.6,40.5,29,40.5z"/>
	</g>
</g>
</svg>
