<?xml version="1.0" encoding="utf-8"?>
<!-- Generator: Adobe Illustrator 24.2.0, SVG Export Plug-In . SVG Version: 6.00 Build 0)  -->
<svg version="1.1" id="_x3C_Layer_x3E_" xmlns="http://www.w3.org/2000/svg" xmlns:xlink="http://www.w3.org/1999/xlink" x="0px"
	 y="0px" viewBox="0 0 2848 1433.68" style="enable-background:new 0 0 2848 1433.68;" xml:space="preserve">
<style type="text/css">
	.st0{fill:#FBE9E9;}
	.st1{fill:#EC8888;}
	.st2{fill:#E66363;}
	.st3{fill:#F2AFAF;}
	.st4{fill:#ED8E8E;}
	.st5{fill:#78A4DD;}
	.st6{fill:#443E51;}
	.st7{fill:#4F4A5B;}
	.st8{fill:#403A4D;}
	.st9{fill:#534E5F;}
	.st10{fill:#ED9090;}
	.st11{fill:#E87272;}
	.st12{fill:#BD9B88;}
	.st13{fill:#EC8D8D;}
	.st14{fill:#E97979;}
	.st15{fill:#F4BABA;}
	.st16{fill:#ED9393;}
	.st17{fill:#F1A9A9;}
	.st18{fill:#EE9999;}
	.st19{fill:#F2B1B1;}
	.st20{fill:#F6C5C5;}
	.st21{fill:#6CBDB5;}
	.st22{fill:#88C9C3;}
	.st23{fill:#A8D8D3;}
	.st24{fill:#EE9898;}
	.st25{opacity:0.4;fill:#E66363;}
	.st26{fill:#FFFFFF;}
	.st27{fill:#79A5DE;}
	.st28{fill:#72A0DC;}
	.st29{fill:#A9D9D4;}
</style>
<g>
	<path class="st0" d="M293.39,1425.95c0,0-302.62-324.92-51.18-676.69c223.1-312.12,483.21-290.78,674.05-164.12
		c81.28,53.95,314.04,5.65,515.08-310.94c286.43-451.07,1215.32-171,1042.94,495.92c-83.33,322.43,253.19,334.19,81.79,656.52
		L293.39,1425.95z"/>
	<g>
		<g>
			<g>
				<path class="st1" d="M2139.14,1423.63c-2.16,0-4.01-1.76-4.38-4.16l-21.45-141.02l-30.85-202.82l-8.63-56.71l21.97-0.73
					l3.81,32.92l26.77,231.36l15.87,137.14C2142.5,1421.74,2141.04,1423.63,2139.14,1423.63z"/>
			</g>
			<g>
				<path class="st1" d="M1914.28,1018.91l-9.78,64.28v0.01l-27.01,177.55l-24.15,158.72c-0.36,2.4-2.21,4.16-4.37,4.16
					c-1.9,0-3.37-1.89-3.12-4.01l20.82-179.93l22.27-192.46l3.36-29.04L1914.28,1018.91z"/>
			</g>
			<path class="st2" d="M1904.51,1083.19c1.28-27.62-15.56-35.97-15.56-35.97l3.36-29.04l21.97,0.73L1904.51,1083.19z"/>
			<path class="st2" d="M2099.62,1051.11c-14.24,7.29-17.16,24.52-17.16,24.52l-8.63-56.71l21.97-0.73L2099.62,1051.11z"/>
		</g>
		<path class="st1" d="M2161.37,1018.91h-334.62c-5.11,0-9.29-4.18-9.29-9.29v-3.69c0-5.11,4.18-9.29,9.29-9.29h334.62
			c5.11,0,9.29,4.18,9.29,9.29v3.69C2170.66,1014.73,2166.48,1018.91,2161.37,1018.91z"/>
	</g>
	<g>
		<path class="st2" d="M664.01,863.26c0,0,107.62,26.07,76.62,136.73C740.63,999.99,635.18,969.39,664.01,863.26z"/>
		<path class="st3" d="M672.91,957.71c3.47-2.45,11.33-7.83,11.74-6.63c0.29,0.86-0.13,2.33-1.07,3.85c4.75-1.78,9.58-2.94,21-0.75
			c2.29,0.44,4.36,1.74,5.62,3.7c1.16,1.81,1.6,4.08-1.31,5.89c-5.83,3.62-4.14,1.45-12.23,6.73c-8.1,5.28-18.01,6.62-23.93,2.92
			l-7.95-1.33l-0.99-13.07C663.78,959.02,668.31,958.47,672.91,957.71z"/>
		<path class="st3" d="M462.03,844.6c0,0,21.35,25.68,45.21,16.38c0,0,5.13-12.42,5.21-21.57c0.01-1.13,0.02-2.22,0.04-3.26
			c0.13-10.31,0.47-16.09,0.47-16.09s-0.01,0-0.02,0c-1.09-0.45-36.48-14.98-36.45-13.78C477.1,834.17,462.03,844.6,462.03,844.6z"
			/>
		<path class="st4" d="M480.05,812.94c3.41,6.33,15.12,18.7,32.44,23.22c0.13-10.31,0.47-16.09,0.47-16.09s-0.01,0-0.02,0
			C511.96,819.81,479.03,811.08,480.05,812.94z"/>
		<path class="st3" d="M520.38,819.01c0,0-39.8,9.36-45.25-15.52c-5.45-24.88-14.25-40.42,10.93-47.45
			c25.18-7.03,32.21,1.38,36.05,9.24C525.95,773.15,530.59,815.93,520.38,819.01z"/>
		<path class="st5" d="M476.49,810.27c-0.54,0.35-9.11,2.98-25.32-29.33c-2.55-5.07-4.28-16.04,1.65-25.74
			c5.93-9.69,26.98-17.32,44.46-20.63c17.48-3.32,21.68,6.52,25.8,16.41c4.32,10.38,16.8,18.92,16.8,18.92
			c-15.08,8.42-33.24-3.62-39.53-1.64c-6.29,1.98-8.51,11.89-8.98,15.07c-0.47,3.18-1.2,5.82-9.11,2.98
			c-7.91-2.84-3.58,11.21-2.31,13.9C479.95,800.2,481.03,807.36,476.49,810.27z"/>
		<g>
			<path class="st6" d="M373.96,1430.6h-24.1c-5.05,0-10.67-5.06-12.07-14.32c-1.41-9.27-11.79-14.32-14.04-21.9
				c-2.25-7.58,9.27-18.25,9.27-18.25l1.92-2.47l2-2.58l19.09,4.49c0,0,0.47,4.55,0.77,10.34c0.2,4.18,0.32,9.01,0.08,13.25
				c-0.56,10.11,2.83,21,11.81,22.96C377.68,1424.08,373.96,1430.6,373.96,1430.6z"/>
			<path class="st6" d="M541.73,1430.6h-63.88c-0.61-0.12-1.08-0.25-1.36-0.39c-4.26-2.14-2.93-18.46-2.42-23.51
				c0.1-0.93,0.17-1.48,0.17-1.48s22.46-17.97,25.55-4.21c0.1,0.43,0.21,0.85,0.33,1.26v0.01c3.9,12.87,21.33,18.72,31.4,20.35
				C539.23,1423.87,541.22,1428.36,541.73,1430.6z"/>
			<path class="st7" d="M528.86,1062.21c0,0-3.41,42.56-7.42,93.73c-5.45,69.5-12,154.87-12.65,171.04c-1.12,28.08-5.62,73-5.62,73
				s-10.66,10.67-32.01,6.17c0,0-19.02-64.13-24.45-131.98c-0.08-1.11-0.17-2.23-0.25-3.35c-5.05-69.07-12.91-214.52-12.91-214.52
				L528.86,1062.21z"/>
			<path class="st8" d="M528.86,1062.21c0,0-3.41,42.56-7.42,93.73l-74.73,118.25c-0.08-1.11-0.17-2.23-0.25-3.35
				c-5.05-69.07-12.91-214.52-12.91-214.52L528.86,1062.21z"/>
			<path class="st7" d="M513.28,1067.27c0,0-61.49,154.15-101.92,226.59c-40.43,72.44-53.07,92.66-53.07,92.66
				s-23.16-9.27-25.27-15.58c0,0,15.46-139.85,42.54-173.94c15.3-19.26,33.27-77.07,34.12-97.29c0.84-20.22,5.47-60.23,5.47-60.23
				L513.28,1067.27z"/>
		</g>
		<g>
			<path class="st3" d="M373.05,1039.26l-0.65,9.91c0,0,6.54,17.61-11.78,26.65c0,0-7.84,3.16-8.16-2.94
				c-0.32-6.11,0.69-3.81,0.05-12.41c-0.64-8.6,2.74-16.72,8.43-19.46l4.67-5.38L373.05,1039.26z"/>
			<path class="st6" d="M365.89,1046.48c6.81,2.18,7.9,1.69,7.9,1.69s33.13-60.31,36.48-65.83c3.36-5.52,70.33-67.63,70.33-67.63
				l-17.21-64.18c0,0-76.18,98.65-84.41,112.8c-13.59,23.39-21.56,77.72-21.56,77.72S360.55,1044.76,365.89,1046.48z"/>
		</g>
		<path class="st9" d="M541.84,939.91c-0.24,13.18-1,28-2.04,43.05c-0.06,0.89-0.13,1.78-0.19,2.68c-0.66,9.32-1.38,18.67-2.2,27.78
			c-0.33,3.65-0.68,7.26-1.05,10.81l-0.06,0.48c-0.03,1.33-0.19,2.77-0.34,4.08c-3.36,34.13-6.88,61.1-7.53,61.51
			c-0.78,0.52-1.66,0.78-2.62,0.67c-8.95-1.12-35.66,0.91-57.52-3.85c-18.45-3.89-34.34-11.27-51.17-21.22
			c-2.23-1.32-7.33-4.82-6.91-7.43c0.41-2.87,1.16-7.03,2.12-12.25c3.32-18.16,9.04-49.39,11-85.94c0.38-6.81,0.93-13.53,1.65-20.14
			c1.88-17.22,4.88-33.58,8.92-48.11c7.5-26.99,19.91-47.23,33.73-55.32c1.8-1.01,10.12,4.74,19.05,10.46
			c8.24,5.28,15.59,4.08,24.03,3.35l8.75,10.88c8.99,10.45,18.57,24.37,21.18,44.16c0.2,1.46,0.37,3.01,0.51,4.67
			C541.87,918.28,542.04,928.48,541.84,939.91z"/>
		<path class="st6" d="M541.84,939.91c-0.24,13.18-1,28-2.04,43.05c-0.06,0.89-0.13,1.78-0.19,2.68
			c-51.13-32-59.01-90.57-59.01-90.57c25.15,1.1,45.14,6.89,60.54,15.16C541.87,918.28,542.04,928.48,541.84,939.91z"/>
		<path class="st9" d="M671.03,965.12c0.53-7.58-3.4-8.84-3.4-8.84s-77.09-13.97-83.64-16.03c-6.55-2.06-62.59-60.35-62.59-60.35
			s-21.48-24.22-39.07-18.87c-15.28,4.65-21.26,16.57-23.29,27.93c-2.42,13.53,3.81,27.15,15.54,34.34
			c26.31,16.14,78.98,47.93,91.38,51.57c27.61,8.09,101.78,0.65,101.78,0.65S670.61,971.07,671.03,965.12z"/>
	</g>
	<g>
		<path class="st6" d="M1175.67,61.37c-0.06-1.64-1.33-19.28-28.21-20.21c0,0,13.22,1.58,15.5,7.39c0,0-9-7.18-16.33-4.87
			c-7.33,2.31-11.63,15.15-11.68,19.37c-0.04,4.22,4.03,17.84,8.68,19c1.76,0.44,3.79,0.32,5.63,0.01
			c-1.24,1.93-2.45,4.06-3.61,6.44c-10.73,22.02,0.34,43.54,9.42,41.16c5.82-1.52,7.47,8.41,7.47,8.41l56.58-45.8
			C1219.13,92.27,1198.35,49.27,1175.67,61.37z"/>
		<path class="st7" d="M1195.37,710l-12.02,4.48c0,0-52.2-72.4-58.62-136.09c-1.15-11.37-0.77-22.39,1.72-32.56
			c0,0-0.51-2.91-1.4-8.07c-0.41-2.4-0.92-5.3-1.5-8.61c-1.7-9.72-4.03-23.03-6.7-38.18c-6.14-34.86-14.1-79.42-20.28-112.18
			l3.24-1.04l35.04-11.3l7.24-23l26.09-6.87c0,0,5.83,11.4,11.04,65.26c0.96,7.06,1.83,14.85,2.49,23.3
			c2.03,25.78,2.18,57.77-2.48,94.34c-1.2,9.36-2.71,19.03-4.58,28.95c-1.37,7.28-1.58,17.2-1,28.59
			C1176.26,629.08,1195.37,710,1195.37,710z"/>
		<path class="st8" d="M1181.7,425.13l-56.65,112.63c-0.41-2.4-0.92-5.3-1.5-8.61c-1.7-9.72-4.03-23.03-6.7-38.18
			c-6.14-34.86-14.1-79.42-20.28-112.18l3.24-1.04l35.04-11.3l7.24-23l26.09-6.87c0,0,5.83,11.4,11.04,65.26
			C1180.17,408.9,1181.04,416.69,1181.7,425.13z"/>
		<path class="st7" d="M1156.77,351.03l-1.31-11.25c-21.97,5.83-80.68-16.31-80.68-16.31s-21.28,18.71-18.49,63.56
			c1.36,21.89,3.86,114.91,6.46,142.44c0.94,9.98,1.76,17.08,2.1,19.91c0.01,0.01,0.01,0.02,0.01,0.03c0.1,0.87-0.2,1.68-0.64,2.44
			c-3.83,6.5-7,13.27-9.61,20.2c-25.54,68.06,3.93,151.88,3.93,151.88l7.65-3.08c0,0,16.77-93.28,30.4-134.49
			c2.31-6.99,4.53-12.48,6.56-15.76c5.93-9.56,11.43-25.19,16.42-43.78c9.43-35.14,17.03-80.85,22.08-116.14
			C1142.36,410.71,1156.77,351.03,1156.77,351.03z"/>
		<path class="st3" d="M1329.87,336.66c-4.73,4.18-17.28-10.19-19.01-12.1c-0.09-0.18-0.18-0.27-0.18-0.27l3.82-10.64
			c0,0,16.46-0.64,19.19,2.09C1336.42,318.47,1335.06,332.2,1329.87,336.66z"/>
		<path class="st3" d="M1314.5,313.65l-1.64,11c0,0-0.73,0-2-0.09c-4-0.27-13.73-0.82-24.74-2c-16.55-1.64-36.2-4.55-44.02-9.37
			c-11.91-7.28-31.47-29.56-44.2-51.84c-0.36-0.54-0.64-1.09-0.91-1.64c-6.64-11.82-11.28-23.56-11.64-32.92
			c-0.27-5.73,0.36-10.64,1.54-14.92c1.55-5.64,4.09-10.09,6.73-13.46c0.36-0.55,0.73-1.09,1.27-1.55c4.37-5.18,8.64-7.37,8.64-7.37
			c2.18-0.91,4.55,0.18,7,2.82v0.09c2,2.09,4.18,5.27,6.27,9.28c0.09,0.09,0.18,0.18,0.18,0.27c0.46,0.82,0.91,1.73,1.46,2.73
			c0.18,0.18,0.27,0.46,0.36,0.64c1,2.09,2,4.27,3,6.55c11.19,24.37,23.1,61.3,33.01,72.3c4.27,4.73,23.83,14.01,39.38,20.92
			C1305.41,310.01,1314.5,313.65,1314.5,313.65z"/>
		<path class="st3" d="M1198.75,214.62c-6.9,3.2-15.23,5.38-25.3,5.93c-37.77,2.07-46.35-31.04-47.91-53.02
			c5.45-1.97,10.21-1.79,12.96-1.64c2.68,0.15,5.47,0.42,7.78,0.71c4.62-2.41,12.92-14.14,17.72-33.75l1.63,0.76l27.26,12.81
			c0,0-2.89,8.87-5.03,17.36c-1.67,6.64-2.87,13.06-1.86,14.85c2.15,0.87,3.43,1.42,3.43,1.42s0,0.01,0.01,0.03
			C1189.7,180.77,1195.63,195.87,1198.75,214.62z"/>
		<path class="st4" d="M1192.88,146.41c0,0-2.9,8.86-5.03,17.36c-15.93-4.45-20.77-21.19-22.23-30.17L1192.88,146.41z"/>
		<path class="st3" d="M1196.24,155.8c0,0-38.12-8.82-32.26-32.47c5.86-23.65,4.88-40.72,29.47-36.09
			c24.58,4.63,27.06,14.82,27.02,23.19C1220.44,118.8,1206.3,157.48,1196.24,155.8z"/>
		<path class="st6" d="M1222.62,97c-4.1-8.57-8.92-8.12-11.94-6.6c-17.91-16.57-35.48-3.03-35.48-3.03
			c-6.76,16.33-21.42,23.01-21.42,23.01s5.86,6,22.83,5.86c5.18-0.04,10.4-2.42,15.14-5.7c-9.15,9.21-19.87,14.82-19.87,14.82
			c21.24-4.07,35.49-28.66,36.95-31.27c1.8,2.66,5.24,8.32,5.53,13.09c0.39,6.49-1.84,19.1,1.88,19.58
			C1216.24,126.76,1228.76,109.86,1222.62,97z"/>
		<path class="st10" d="M1221.92,211.84c-1.37-4.12-10.55-20.13-10.55-20.13c0,0,0,0,0,0c-0.04-0.04-5.83-5.35-21.95-11.67
			c0,0,0,0.01,0.01,0.03c0.26,0.94,7.13,25.85,4.62,31.17c-2.55,5.41-50.83-12.05-53.47-16.03c-2.11-3.2-2.17-20.1-2.11-26.69
			c0.01-1.64,0.03-2.64,0.03-2.64s-18.02-2.44-28.16,1.66c0,0,4,8.69,5.48,18.28c0.14,0.91,0.25,1.83,0.34,2.74
			c0.2,1.93,0.26,3.87,0.15,5.75c-0.15,2.49-1.43,4.7-3.48,6.86c-1.86,1.98-4.4,3.93-7.26,6.02c-1.87,1.35-3.89,2.78-5.97,4.32
			c0,0,0,0,0,0c-0.18,11.29,0.62,29.85-1.47,49.65c-0.53,5.02-2.2,9.83-4.83,14.09c-1.04,1.7-2.24,3.31-3.57,4.81
			c-10.65,11.94-29.52,35.74-25.37,50.56c0.3,13.97,118.15,32.33,115.63,16.98c0,0,17.71-85.35,27.28-105.95
			c0.34-0.76,0.66-1.49,0.94-2.25c3.07-8.13,2.55-16.49,1.51-23.98C1215.11,211.58,1221.92,211.84,1221.92,211.84z"/>
		<path class="st11" d="M1148.25,318.92c-23.24-0.25-42.93-24.38-54.96-43.67c2.63-4.26,4.3-9.07,4.83-14.09
			c2.09-19.81,1.29-38.37,1.47-49.65c0,0,0,0,0,0c2.08-1.54,4.09-2.96,5.97-4.32c2.87-2.09,5.4-4.04,7.26-6.02
			C1131.85,233.34,1179.76,319.26,1148.25,318.92z"/>
		<path class="st8" d="M1103.02,730.18h-60.53c0,0-1.45-9.22,1.71-16.22c3.03-6.72,7.77-9.77,6.64-17.89
			c3.85,3.96,10.11,8.4,18.87,7.22c1.07,1.74,6.92,11.04,10.5,13.61C1084.17,719.74,1101.8,718.73,1103.02,730.18z"/>
		<path class="st8" d="M1232.98,730.18h-60.53c0,0-2.26-9.65,1.71-16.22c3.52-5.81,2.17-9.13-0.44-13.93
			c2.74,1.12,6.29,2.14,10.19,1.92c3.02-0.17,6.21-1.54,9-3.16c2.6,2.97,13.76,15.61,17.25,18.12
			C1214.13,719.74,1231.77,718.73,1232.98,730.18z"/>
		<g>
			<g>
				<path class="st12" d="M1289.14,299.73l-2.58-0.64c8.41-17.02,23.5-29.89,35.91-36.54c10.86-5.83,19.86-8.44,23.09-9.29
					c0.79-0.21,1.63-0.01,2.24,0.52l2.39,2.05c1.18,1.01,0.76,2.94-0.75,3.35C1337.94,262.36,1301.85,274.04,1289.14,299.73z"/>
			</g>
			<path class="st11" d="M1244.01,310.11c7.81-31.67,26.21-27.13,48.91-21.54c22.7,5.6,41.1,10.14,33.29,41.81
				c-5.6,22.7-28.54,36.56-51.24,30.96C1252.27,355.75,1238.41,332.81,1244.01,310.11z"/>
			<path class="st10" d="M1262.94,309.03c-6.76,13.6-6.7,28.82-1.1,41.74c-9.18-10.09-13.34-24.43-9.83-38.68
				c5.69-23.06,16.99-26.93,31.49-25.15C1276.18,289.51,1269.36,296.12,1262.94,309.03z"/>
		</g>
		<path class="st3" d="M1236.11,331.57l-3.18,11.64c0,0-4-0.73-10.37-1.91c-1.91-0.36-3-0.64-3-0.64c-5.09-1-11.19-2.36-17.83-3.82
			h-0.09c-11.37-2.73-24.1-6-34.83-9.64c-7.55-2.64-14.1-5.45-18.55-8.28c-0.45-0.27-0.82-0.55-1.27-0.91
			c-10.64-7.73-23.28-30.47-33.1-54.84c-1.36-3.36-2.64-6.73-3.91-10c-4.55-12.19-8.18-24.19-10.37-34.56
			c-1.36-6.18-2.27-11.82-2.46-16.46c-0.09-1.64-0.18-3.18-0.09-4.64c0.18-26.37,13.28-30.01,13.28-30.01
			c0.27-0.09,0.55-0.18,0.91-0.27c2.27-0.36,4.64,1.18,7.09,4.18c3.09,3.73,6.37,9.82,9.73,17.19
			c5.18,11.73,10.64,26.92,15.73,42.02c2.82,8.28,5.55,16.55,8.28,24.19c1.55,4.64,3.09,9,4.55,13.01
			c2.82,7.64,5.37,13.82,7.64,17.73c1.46,2.55,5.64,6.09,11.19,10.09c9.64,7,23.74,15.46,36.01,22.37
			c5.09,2.91,9.91,5.55,13.91,7.73C1231.83,329.29,1236.11,331.57,1236.11,331.57z"/>
		<path class="st10" d="M1128.03,188.64c-17.51-4.83-31.01,8.84-31.01,8.84c0.22-26.33,13.33-29.94,13.33-29.94
			C1115.62,165.36,1121.73,174.49,1128.03,188.64z"/>
		<path class="st3" d="M1236.11,331.57c0,0,5.71,0.13,8.94-1.85c3.23-1.97,12.38-4.66,16.51-4.22c0,0,1.53,0.63,0.99,2.06
			c-0.54,1.43-7.27,2.6-7.27,5.29c0,0,8.43-0.27,10.95-1.35c2.51-1.08,12.2,1.4,14.08,2.51c1.89,1.12-12.29,9.65-18.57,13.1
			c-6.28,3.45-28.81-3.92-28.81-3.92L1236.11,331.57z"/>
	</g>
	<g>
		<g>
			<path class="st8" d="M2458.05,1372.66c0,0,11.4,10.4,9.17,17.79c-2.22,7.39-12.51,12.32-13.9,21.35s-6.95,13.96-11.95,13.96
				c-5,0-23.85,0-23.85,0s-3.68-6.35,5.21-8.27c8.89-1.91,12.25-12.53,11.69-22.38c-0.56-9.85,0.83-22.99,0.83-22.99l18.9-4.38
				L2458.05,1372.66z"/>
			<path class="st8" d="M2318.23,1399.56c0,0,2.04,23.67-2.96,26.13l-64.03-0.13c0,0,0-7.39,10.29-9.03
				c10.28-1.64,28.35-7.66,31.41-21.07C2296,1382.05,2318.23,1399.56,2318.23,1399.56z"/>
			<path class="st7" d="M2264.17,1065.22c0,0,3.38,41.49,7.35,91.36c5.39,67.75,11.88,150.96,12.52,166.73
				c1.11,27.37,5.56,71.16,5.56,71.16s10.56,10.4,31.69,6.02c0,0,18.83-62.51,24.21-128.65c0.08-1.08,0.17-2.18,0.25-3.27
				c5-67.33,12.78-209.1,12.78-209.1L2264.17,1065.22z"/>
			<path class="st8" d="M2264.17,1065.22c0,0,3.38,41.49,7.35,91.36l73.98,115.26c0.08-1.08,0.17-2.18,0.25-3.27
				c5-67.33,12.78-209.1,12.78-209.1L2264.17,1065.22z"/>
			<path class="st7" d="M2279.6,1070.14c0,0,60.87,150.26,100.9,220.87s52.53,90.32,52.53,90.32s22.93-9.03,25.02-15.19
				c0,0-15.31-136.32-42.11-169.55c-15.15-18.78-32.94-75.13-33.77-94.84c-0.83-19.71-5.42-58.71-5.42-58.71L2279.6,1070.14z"/>
		</g>
		<path class="st3" d="M2359.69,838.58c0,0-41.19,19.87-64.93,12.5c0,0,5.84-7.37,16.07-12.86c-0.82-4.77-1.46-8.9-1.83-12.41
			c-1-8.09-1-12.68-1-12.68l15.89-12.5l15.07-11.96C2337.77,822.31,2359.69,838.58,2359.69,838.58z"/>
		<path class="st13" d="M2381.39,1050.74c0.09,2.52-5.3,5.4-7.67,6.48c-17.63,7.73-34.06,13.13-52.69,14.93
			c-22.01,2.25-48.04-2.7-56.99-2.52c-0.92,0-1.74-0.36-2.47-0.99c-0.64-0.45-1.09-26.98-0.64-60.34c0-1.35,0-2.7,0.09-4.05v-0.45
			c0.18-13.04,0.64-26.71,1.28-40.38c1.28-30.04,3.65-58.99,7.67-75c4.84-18.88,15.8-31.38,25.75-40.47l8.22-7.19
			c8.22,1.62,16.89,1.17,25.57-3.06c9.5-4.59,19.73-9.53,21.37-8.27c12.42,9.08,20.82,29.5,25.3,55.57
			c2.56,15.02,3.84,31.83,3.74,49.46c0,6.47-0.18,13.13-0.55,19.69c-2.19,35.61,0,66.54,1.28,84.44
			C2381.03,1043.82,2381.3,1047.87,2381.39,1050.74z"/>
		<path class="st14" d="M2380.66,1038.6c-199.54-0.27-36.8-146.49-36.8-146.49l32.33-7.1c2.56,15.02,3.84,31.83,3.74,49.46
			c0,6.47-0.18,13.13-0.55,19.69C2377.19,989.78,2379.39,1020.71,2380.66,1038.6z"/>
		<path class="st4" d="M2339.23,801.54c0,0-10.41,18.97-30.23,24.28c-1-8.09-1-12.68-1-12.68l15.89-12.5L2339.23,801.54z"/>
		<path class="st3" d="M2300.75,812.59c0,0,39.29,6.43,42.98-17.73c3.69-24.15,11.24-39.59-13.69-44.72
			c-24.93-5.13-31.22,3.37-34.45,11.14C2292.38,769.05,2290.63,810.29,2300.75,812.59z"/>
		<path class="st6" d="M2358.01,747.25c0.36-0.41,1.18-0.74,3.01-0.84c0,0-1.46-0.91-3.42-0.96c-0.38-2.55-1.74-7.05-6.12-8.15
			c0,0,2.35,1.25,2.66,3.96c-5.08-5.21-15.95-9.01-46.06-6.63c-39.69,3.13-26.61,28.54-21.47,31.57c5.14,3.03,18.07-5.27,27.64-4.51
			c9.57,0.76,11.39,14.59,14.64,16.49c3.25,1.9,1.97-1.46,6.37-3.44c4.39-1.99,4.81,5.29,3.54,10.03
			c-1.27,4.73,4.77,10.98,4.77,10.98s0,0,6.1-6.57c6.1-6.57,11.85-34.4,9.08-40.33C2358.51,748.31,2358.26,747.78,2358.01,747.25z"
			/>
		<g>
			<path class="st15" d="M2168.64,914.38l305.21,138.28c3.78,1.71,5.45,6.17,3.74,9.94c-1.71,3.77-6.16,5.45-9.94,3.74
				l-305.21-138.28c-3.77-1.71-5.45-6.17-3.74-9.94c0.86-1.89,2.39-3.25,4.2-3.92C2164.7,913.52,2166.75,913.52,2168.64,914.38z"/>
			<g>
				<polygon class="st14" points="2176.15,917.78 2188.51,923.38 2190.2,940.64 2177.84,935.04 				"/>
				<polygon class="st14" points="2219.77,937.55 2232.13,943.14 2233.82,960.4 2221.47,954.8 				"/>
				<polygon class="st14" points="2263.39,957.31 2265.1,974.57 2277.45,980.16 2275.75,962.91 				"/>
				<polygon class="st14" points="2307.01,977.07 2319.37,982.67 2321.07,999.92 2308.72,994.33 				"/>
				<polygon class="st14" points="2350.63,996.83 2362.99,1002.43 2364.69,1019.69 2352.34,1014.09 				"/>
				<polygon class="st14" points="2394.26,1016.6 2406.61,1022.2 2408.31,1039.45 2395.96,1033.86 				"/>
				<polygon class="st14" points="2437.88,1036.36 2450.24,1041.96 2451.93,1059.21 2439.58,1053.62 				"/>
			</g>
			<path class="st14" d="M2158.71,918.12c0,0-7.08,1-10.91-5.17C2147.79,912.95,2152.67,911.27,2158.71,918.12z"/>
		</g>
		<g>
			<path class="st15" d="M2184.82,868.75l280.45,183.38c3.47,2.27,4.44,6.93,2.18,10.39c-2.27,3.46-6.92,4.45-10.39,2.17
				L2176.6,881.32c-3.47-2.27-4.44-6.93-2.18-10.39c1.14-1.74,2.86-2.84,4.75-3.24C2181.05,867.29,2183.08,867.61,2184.82,868.75z"
				/>
			<g>
				<polygon class="st2" points="2191.71,873.26 2203.07,880.69 2202.1,897.99 2190.75,890.57 				"/>
				<polygon class="st2" points="2231.8,899.47 2243.15,906.89 2242.18,924.2 2230.83,916.78 				"/>
				<polygon class="st2" points="2271.88,925.68 2270.92,942.99 2282.27,950.41 2283.23,933.1 				"/>
				<polygon class="st2" points="2311.96,951.89 2323.31,959.31 2322.35,976.62 2311,969.2 				"/>
				<polygon class="st2" points="2352.04,978.09 2363.4,985.52 2362.43,1002.83 2351.08,995.41 				"/>
				<polygon class="st2" points="2392.12,1004.3 2403.48,1011.73 2402.51,1029.04 2391.16,1021.62 				"/>
				<polygon class="st2" points="2432.2,1030.51 2443.56,1037.94 2442.59,1055.25 2431.24,1047.83 				"/>
			</g>
			<path class="st14" d="M2174.42,870.92c0,0-7.15-0.09-9.99-6.78C2164.43,864.15,2169.51,863.23,2174.42,870.92z"/>
		</g>
		<g>
			<path class="st15" d="M2157.56,943.56l310.25,126.58c3.84,1.57,5.68,5.96,4.12,9.79c-1.56,3.83-5.95,5.68-9.79,4.12
				l-310.25-126.58c-3.83-1.56-5.68-5.95-4.12-9.79c0.78-1.92,2.27-3.33,4.04-4.08S2155.63,942.77,2157.56,943.56z"/>
			<g>
				<polygon class="st7" points="2165.19,946.67 2177.75,951.8 2180.1,968.97 2167.54,963.85 				"/>
				<polygon class="st7" points="2209.53,964.76 2222.09,969.89 2224.44,987.06 2211.88,981.94 				"/>
				<polygon class="st7" points="2253.87,982.85 2256.23,1000.03 2268.78,1005.15 2266.43,987.98 				"/>
				<polygon class="st7" points="2298.21,1000.94 2310.77,1006.07 2313.12,1023.24 2300.57,1018.12 				"/>
				<polygon class="st7" points="2342.55,1019.03 2355.11,1024.16 2357.46,1041.33 2344.91,1036.21 				"/>
				<polygon class="st7" points="2386.89,1037.12 2399.46,1042.25 2401.8,1059.42 2389.25,1054.3 				"/>
				<polygon class="st7" points="2431.23,1055.21 2443.8,1060.34 2446.14,1077.51 2433.59,1072.39 				"/>
			</g>
			<path class="st14" d="M2147.77,947.67c0,0-7.04,1.27-11.1-4.75C2136.67,942.92,2141.48,941.05,2147.77,947.67z"/>
		</g>
		<g>
			<path class="st3" d="M2302.65,1009.56c0,0-6.72-2.53-8.36-4.41c-1.65-1.88-4.43-0.86-4,1.47c0.43,2.33,2.56,4.29,6.16,5.11
				C2300.05,1012.55,2302.65,1009.56,2302.65,1009.56z"/>
			<path class="st3" d="M2310.96,1006.61l-8.31,2.94c0,0-7.42-7.35-31.23,9.58c0,0-6.88,4.47,1.59,6.47
				c5.66,1.34,8.04-0.58,16.05,1.18s16.16-0.34,19.58-5.33l5.76-3.67L2310.96,1006.61z"/>
		</g>
		<path class="st13" d="M2326.14,882.77c6.31,20.96,18.59,55.46,37.26,81.49c0,0,22.53,27.78,30.86,24.25
			c7.23-3.07-2.74-153.02-48.93-140.83C2330.17,851.67,2321.62,867.76,2326.14,882.77z"/>
		<path class="st13" d="M2363.4,964.25c0,0-32.42,30.51-57.09,44.01c0,0-7.03,15.61,5.05,19.13c0,0,77.85-29.38,82.9-38.9
			C2399.3,978.98,2389.65,952.46,2363.4,964.25z"/>
	</g>
	<path class="st16" d="M1966.52,1224.54v112.02c0,5.68-4.66,10.33-10.34,10.33H728.57c-5.69,0-10.34-4.65-10.34-10.33v-125.41
		c0-21.62,3.99-42.36,11.31-61.5c0.59-1.55,1.19-3.07,1.84-4.6c3-7.28,6.5-14.31,10.45-21.07l0.01-0.02
		c30.2-51.76,86.38-86.73,150.31-86.73h887.05c54.68,0,104.08,23.74,138.4,61.43c9.26,10.15,17.41,21.31,24.27,33.29
		c0.01,0.01,0.01,0.01,0.01,0.01c2.44,4.26,4.72,8.62,6.82,13.09C1960.12,1169.21,1966.52,1196.17,1966.52,1224.54z"/>
	<path class="st17" d="M1966.52,1224.54v19.86H718.23v-33.25c0-21.62,3.99-42.36,11.31-61.5c0.59-1.55,1.19-3.07,1.84-4.6
		c3-7.28,6.5-14.31,10.45-21.07l0.01-0.02c30.2-51.76,86.38-86.73,150.31-86.73h887.05c54.68,0,104.08,23.74,138.4,61.43
		c9.26,10.15,17.41,21.31,24.27,33.29c0.01,0.01,0.01,0.01,0.01,0.01c2.44,4.26,4.72,8.62,6.82,13.09
		C1960.12,1169.21,1966.52,1196.17,1966.52,1224.54z"/>
	<path class="st15" d="M1948.7,1145.05H731.38c3-7.28,6.5-14.31,10.45-21.07l0.01-0.02c30.2-51.76,86.38-86.73,150.31-86.73h887.05
		c54.68,0,104.08,23.74,138.4,61.43c9.26,10.15,17.41,21.31,24.27,33.29c0.01,0.01,0.01,0.01,0.01,0.01
		C1944.31,1136.22,1946.59,1140.58,1948.7,1145.05z"/>
	<path class="st16" d="M1758.15,880.45v148.34c0,4.64-3.79,8.44-8.43,8.44H935.03c-4.64,0-8.44-3.8-8.44-8.44V869.52
		c0-27.58,7.98-53.38,21.73-75.23c25.17-39.99,69.73-66.71,120.21-66.71h536.73c37.79,0,72.49,13.89,99.24,36.84
		C1737.3,792.49,1758.15,834.16,1758.15,880.45z"/>
	<path class="st18" d="M1563.45,590.99v134.25c0,2.96-2.42,5.38-5.38,5.38h-431.38c-2.96,0-5.38-2.43-5.38-5.38V584.01
		c0-49.83,40.76-90.59,90.59-90.59h253.98C1519.54,493.42,1563.45,537.33,1563.45,590.99z"/>
	<path class="st17" d="M1758.15,880.45v70.45H926.59v-81.39c0-15.74,2.6-30.91,7.4-45.09c3.59-10.66,8.43-20.76,14.33-30.14
		c25.17-39.99,69.73-66.71,120.21-66.71h536.73c37.79,0,72.49,13.89,99.24,36.84c18.79,16.1,33.67,36.67,42.94,60.02
		C1754.36,841.79,1758.15,860.7,1758.15,880.45z"/>
	<path class="st15" d="M1747.45,824.43H934c3.59-10.66,8.43-20.76,14.33-30.14c25.17-39.99,69.73-66.71,120.21-66.71h536.73
		c37.79,0,72.49,13.89,99.24,36.84C1723.31,780.51,1738.19,801.08,1747.45,824.43z"/>
	<path class="st2" d="M1704.51,764.41c-14.92,0.41-33.51,22.4-52.32,21.91c-21.08-0.55-32.73-26.08-51.04-24.96
		c-18.31,1.11-20.52,18.12-14.97,33.66c5.55,15.53,9.71,48.73-16.65,45.68c-25.34-2.94-9.71-41.06-10.54-66.02
		c-0.9-26.98-46.05-35.51-78.22-10.54c-32.18,24.96-92.93,30.13-109.85,3.33c-6.66-10.54-30.52-15.54-44.38-8.33
		c-13.87,7.22-1.15,72.96,0.51,90.16c1.66,17.2-31.3,17.76-33.8,5c-2.63-13.43,14.61-95.15-1.66-96.99
		c-16.27-1.85-23.85,6.42-22.56,12.2c1.19,5.32,6.75,19.74-3.32,20.71c-8.62,0.83-14.19-3.61-11.57-10.06
		c1.63-4,9.34-19.9-10.26-24.15c-19.6-4.25-32.55,5.73-34.77,10.9c-2.21,5.18,6.29,27.01,1.86,32.55
		c-4.44,5.55-18.77,5.55-22.19-3.33c-2-5.18,15.9-31.06-2.22-38.1c-18.13-7.03-39.95,5.55-55.11,17.76
		c-15.17,12.21-40.68,18.13-61.76,6.66c-21.08-11.47-38.1,0-44.38,7.4c-6.29,7.4,1.84,28.48,0,35.62
		c-1.85,7.13-35.13,10.98-24.41-14.91c10.73-25.89-5-33.1-5-33.1c-18.39-6.85-39.04,9.15-47.54,16.85
		c25.17-39.99,69.73-66.71,120.22-66.71h536.73C1643.06,727.57,1677.75,741.46,1704.51,764.41z"/>
	<path class="st19" d="M1563.45,590.99v76.12H1121.3v-83.1c0-0.7,0.01-1.39,0.03-2.09c1.12-48.88,41.43-88.51,90.56-88.51h253.98
		c50.61,0,92.54,39.05,97.14,88.51C1563.3,584.91,1563.45,587.94,1563.45,590.99z"/>
	<path class="st20" d="M1563.02,581.93h-441.68c1.12-48.88,41.43-88.51,90.56-88.51h253.98
		C1516.49,493.42,1558.42,532.47,1563.02,581.93z"/>
	<g>
		<g>
			<path class="st2" d="M1109.89,684.16l-1.97-0.49c6.42-12.99,17.94-22.81,27.41-27.89c8.29-4.45,15.16-6.44,17.63-7.09
				c0.6-0.16,1.24,0,1.71,0.4l1.83,1.57c0.9,0.78,0.58,2.24-0.57,2.56C1147.13,655.63,1119.59,664.55,1109.89,684.16z"/>
		</g>
		<path class="st11" d="M1075.45,692.08c5.96-24.17,20.01-20.71,37.33-16.44c17.33,4.27,31.37,7.74,25.41,31.91
			c-4.27,17.33-21.78,27.91-39.11,23.63C1081.75,726.92,1071.17,709.41,1075.45,692.08z"/>
		<path class="st10" d="M1089.9,691.25c-5.16,10.38-5.11,21.99-0.84,31.86c-7.01-7.7-10.18-18.65-7.5-29.52
			c4.34-17.6,12.97-20.56,24.03-19.2C1100,676.36,1094.8,681.41,1089.9,691.25z"/>
	</g>
	<path class="st2" d="M1701.05,592.57c0,0-130.38,47.55-67.33,143.18C1633.72,735.75,1729.89,698.7,1701.05,592.57z"/>
	<g>
		<g>
			<path class="st2" d="M1539.41,661.28l2.46,1.56c7.1-19.56,5.86-41.28,1.72-56.15c-3.62-13.02-8.37-22.14-10.15-25.33
				c-0.43-0.78-1.23-1.29-2.12-1.38l-3.44-0.34c-1.7-0.17-2.9,1.63-2.09,3.13C1532.03,594.29,1550.14,631.74,1539.41,661.28z"/>
		</g>
		<path class="st11" d="M1486.46,670.03c8.57-34.73,28.74-29.75,53.63-23.61c24.89,6.14,45.07,11.12,36.5,45.85
			c-6.14,24.89-31.29,40.09-56.18,33.95C1495.52,720.07,1480.32,694.92,1486.46,670.03z"/>
		<path class="st10" d="M1507.22,668.83c-7.42,14.92-7.35,31.6-1.21,45.77c-10.07-11.06-14.63-26.79-10.77-42.41
			c6.24-25.29,18.63-29.54,34.52-27.58C1521.73,647.44,1514.25,654.68,1507.22,668.83z"/>
	</g>
	<path class="st2" d="M1543.17,683.3c0,0,19.54,83.46,82.83,51.84C1626,735.14,1610.37,673.45,1543.17,683.3z"/>
	<g>
		<path class="st21" d="M801.06,915.36c0,0,130.38,47.55,67.33,143.17C868.38,1058.54,772.22,1021.49,801.06,915.36z"/>
		<path class="st22" d="M793.39,1008.02c0,0,81.88-20.49,82.72,49.17C876.11,1057.19,815.04,1071.31,793.39,1008.02z"/>
		<g>
			<g>
				<path class="st2" d="M966.16,981.43l2.83-0.7c-9.22-18.66-25.77-32.77-39.37-40.07c-11.91-6.39-21.78-9.26-25.32-10.18
					c-0.86-0.23-1.78-0.01-2.46,0.57l-2.62,2.25c-1.3,1.11-0.83,3.22,0.82,3.67C912.66,940.45,952.23,953.26,966.16,981.43z"/>
			</g>
			<path class="st11" d="M1015.65,992.82c-8.57-34.73-28.74-29.75-53.63-23.61c-24.89,6.14-45.07,11.12-36.5,45.85
				c6.14,24.89,31.29,40.09,56.19,33.95C1006.59,1042.86,1021.79,1017.71,1015.65,992.82z"/>
			<path class="st10" d="M994.89,991.62c7.42,14.92,7.35,31.6,1.21,45.77c10.07-11.06,14.63-26.79,10.78-42.41
				c-6.24-25.29-18.63-29.53-34.53-27.58C980.38,970.23,987.85,977.47,994.89,991.62z"/>
		</g>
		<path class="st2" d="M958.94,1006.09c0,0-19.54,83.46-82.83,51.84C876.11,1057.93,891.73,996.23,958.94,1006.09z"/>
	</g>
	<path class="st21" d="M1286.52,493.42c0,0-35.86-79.39-125.42-71.64c0,0,32.78,33.55,45.43,46.96
		C1235.76,499.73,1286.52,493.42,1286.52,493.42z"/>
	<path class="st21" d="M1387.12,493.42c0,0,29.19-84.11,118.75-76.36c0,0-24.11,40.47-38.75,51.67
		C1452.47,479.93,1387.12,493.42,1387.12,493.42z"/>
	<path class="st21" d="M1306.31,447.97c1.06-7.03-8.96-39.21,6.67-56c15.64-16.79,31.42-28.26,31.42-28.26s6.72,33.72,5.03,41.77
		C1345.36,424.83,1306.31,447.97,1306.31,447.97z"/>
	<g>
		<g>
			<path class="st12" d="M1292.46,435.69l2.37-0.58c-7.73-15.63-21.58-27.45-32.98-33.56c-9.97-5.35-18.24-7.75-21.21-8.53
				c-0.72-0.19-1.49-0.01-2.06,0.48l-2.2,1.88c-1.09,0.93-0.7,2.7,0.68,3.08C1247.65,401.37,1280.79,412.09,1292.46,435.69z"/>
		</g>
		<path class="st11" d="M1333.9,445.22c-7.17-29.09-24.07-24.92-44.92-19.78c-20.85,5.14-37.75,9.31-30.57,38.4
			c5.14,20.84,26.21,33.58,47.05,28.43C1326.31,487.14,1339.04,466.07,1333.9,445.22z"/>
		<path class="st10" d="M1316.52,444.22c6.21,12.49,6.15,26.46,1.01,38.33c8.43-9.27,12.25-22.44,9.02-35.52
			c-5.22-21.18-15.6-24.73-28.91-23.1C1304.36,426.31,1310.62,432.38,1316.52,444.22z"/>
	</g>
	<path class="st2" d="M1387.37,492.06c0,0-11.49-51.46-68.32-53.75C1319.04,438.3,1330.53,495.86,1387.37,492.06z"/>
	<g>
		<g>
			<path class="st12" d="M1392.29,435.69l-2.37-0.58c7.72-15.63,21.58-27.45,32.98-33.56c9.97-5.35,18.24-7.75,21.21-8.53
				c0.72-0.19,1.49-0.01,2.06,0.48l2.2,1.88c1.08,0.93,0.69,2.7-0.68,3.08C1437.1,401.37,1403.96,412.09,1392.29,435.69z"/>
		</g>
		<path class="st11" d="M1350.85,445.22c7.17-29.09,24.07-24.92,44.92-19.78c20.85,5.14,37.75,9.31,30.57,38.4
			c-5.14,20.84-26.21,33.58-47.05,28.43S1345.71,466.07,1350.85,445.22z"/>
		<path class="st10" d="M1368.24,444.22c-6.21,12.49-6.15,26.46-1.01,38.33c-8.43-9.27-12.25-22.44-9.02-35.52
			c5.22-21.18,15.6-24.73,28.91-23.1C1380.39,426.31,1374.13,432.38,1368.24,444.22z"/>
	</g>
	<path class="st2" d="M1188.61,499.81c0,0,21.78-18.59,51.06-14.72c29.28,3.88,43.57,7.71,60.71,2.58
		c17.14-5.12,40.4-2.88,59.65,0.86c19.25,3.74,107.14-17.35,147.22,14.15c0,0-41.25-7.26-47.56,1.35
		c-6.32,8.61,15.07,35.95,2.3,39.61c-7.54,2.16-17.52,2.87-15.5-13.2c2.01-16.08-6.89-28.85-14.92-27.7c-8.04,1.15,4,16.3-0.88,22.9
		c-4.88,6.6-21.79,1.35-18.06-8.41c3.73-9.76,6.6-16.65-7.75-18.08c-14.35-1.44-38.18,7.46-37.32,18.37
		c0.86,10.91,9.76,31,0.29,32.72c-9.47,1.72-17.51-1.15-13.2-17.8c4.31-16.65-3.16-34.16-16.65-33.59
		c-13.49,0.57-46.79,22.96-68.03,14.35c-21.24-8.61-28.45-18.41-35.59-12.92c-5.13,3.95,3.16,25.69-4.81,26.01
		c-6.71,0.27-10.98-1.33-8.68-13.1C1223.17,501.46,1205.9,491.47,1188.61,499.81z"/>
	<path class="st2" d="M1062.42,730.63c0,0,12.63-38.99-7.46-51.23c-20.09-12.24-55.11-21.43-55.11-21.43s12.63,35.59,25.83,45.93
		C1038.88,714.23,1062.42,730.63,1062.42,730.63z"/>
	<path class="st2" d="M1058.83,729.45c0,0-31.15-22.1-49.52-22.39c-18.37-0.29-31.86,14.93-31.86,14.93s20.38,13.49,29.28,11.19
		C1015.63,730.88,1050.5,724.02,1058.83,729.45z"/>
	<path class="st2" d="M1062.42,730.63c0,0,6.46-26.01,34.45-25.29C1096.86,705.33,1096,725.2,1062.42,730.63z"/>
	<g>
		<path class="st23" d="M1995.96,1164.91c0,0,32.12,136.01-83.22,135.85C1912.74,1300.76,1890.71,1199.35,1995.96,1164.91z"/>
		<path class="st21" d="M2027.18,1293.32c0,0-36.03,105.39-113.78,56.35C1913.4,1349.67,1941.56,1271.91,2027.18,1293.32z"/>
		<path class="st2" d="M1860.27,1314.66c0,0,15.6-47.41-9.23-62.3c-24.84-14.88-68.13-26.05-68.13-26.05s15.62,43.28,31.94,55.85
			C1831.17,1294.73,1860.27,1314.66,1860.27,1314.66z"/>
		<path class="st2" d="M1910.82,1360.77c0,0-43.04-50.11-73.76-58.27s-59.72,11.74-59.72,11.74s28.57,31.16,44.47,31.02
			S1899.11,1348.2,1910.82,1360.77z"/>
		<g>
			<g>
				<path class="st2" d="M1909.73,1265.99l3.67-0.91c-11.98-24.24-33.48-42.58-51.16-52.07c-15.48-8.3-28.3-12.03-32.91-13.23
					c-1.12-0.29-2.32-0.01-3.2,0.75l-3.41,2.92c-1.68,1.45-1.08,4.19,1.06,4.77C1840.21,1212.74,1891.63,1229.38,1909.73,1265.99z"
					/>
			</g>
			<path class="st11" d="M1974.03,1280.78c-11.13-45.13-37.35-38.66-69.69-30.68c-32.34,7.98-58.56,14.44-47.43,59.57
				c7.98,32.34,40.66,52.09,73.01,44.12C1962.26,1345.81,1982.01,1313.12,1974.03,1280.78z"/>
			<path class="st10" d="M1947.06,1279.23c9.64,19.38,9.55,41.06,1.57,59.47c13.08-14.38,19.01-34.81,14-55.11
				c-8.11-32.86-24.21-38.38-44.86-35.84C1928.2,1251.43,1937.91,1260.84,1947.06,1279.23z"/>
		</g>
	</g>
	<path class="st2" d="M1917.6,1098.66c-24.35-9.41-56.6,33.53-89.32,32.66c-32.72-0.86-50.81-40.47-79.23-38.75
		c-28.42,1.72-31.86,28.13-23.25,52.24s15.07,75.64-25.83,70.9c-39.35-4.56-15.07-63.73-16.36-102.48
		c-1.4-41.88-71.48-55.11-121.42-16.36c-49.95,38.75-144.23,46.77-170.51,5.17c-10.33-16.36-47.36-24.11-68.89-12.92
		c-21.53,11.2-1.79,113.24,0.79,139.94s-48.59,27.56-52.46,7.75c-4.08-20.85,22.67-147.69-2.58-150.56
		c-25.26-2.88-37.03,9.97-35.02,18.95c1.85,8.27,10.48,30.64-5.17,32.15c-13.37,1.29-22.03-5.6-17.95-15.61
		c2.53-6.2,14.5-30.89-15.92-37.48c-30.42-6.59-50.52,8.89-53.97,16.92c-3.44,8.04,9.76,41.91,2.88,50.53
		c-6.89,8.61-29.14,8.61-34.45-5.17c-3.1-8.04,24.68-48.23-3.44-59.14c-28.13-10.91-62,8.61-85.55,27.56
		c-23.54,18.95-63.15,28.13-95.87,10.33c-32.72-17.8-59.14,0-68.89,11.48c-9.76,11.49,2.87,44.21,0,55.29
		c-2.87,11.07-54.54,17.05-37.89-23.13c16.65-40.19-7.75-51.39-7.75-51.39c-36.67-13.65-79.17,31.23-79.98,32.1
		c3.39-8.92,7.52-17.5,12.28-25.66l0.02-0.03c30.2-51.76,86.37-86.73,150.31-86.73h887.06
		C1833.88,1037.23,1883.28,1060.97,1917.6,1098.66z"/>
	<path class="st2" d="M2122.38,1423.9H562.37c-2.21,0-4.03-1.81-4.03-4.03v-5.22c0-37.27,30.5-67.77,67.77-67.77h1427.3
		c40.15,0,73,32.85,73,72.99l0,0C2126.41,1422.09,2124.6,1423.9,2122.38,1423.9z"/>
	<g>
		<g>
			<path class="st3" d="M1760.63,683.01l-8.18,1.56c0,0-15.33-3.63-20.96,12.54c0,0-1.83,6.85,3.29,6.49
				c5.11-0.36,3.1-0.96,10.32-1.31c7.22-0.35,13.63-4,15.33-9.01l4-4.44L1760.63,683.01z"/>
			<path class="st8" d="M1755.36,689.71c-2.52-5.44-2.22-6.4-2.22-6.4s46.79-33.77,51.04-37.13c4.25-3.36,49.06-65.48,49.06-65.48
				l55.18,7.73c0,0-74.27,73.53-85.21,81.84c-18.07,13.72-62.46,25.93-62.46,25.93S1757.34,693.98,1755.36,689.71z"/>
		</g>
		<g>
			<g>
				<path class="st12" d="M1766.67,671.7l-2.72,1.03c-2.99-20.6,2.63-41.61,9.69-55.34c6.18-12.02,12.68-19.98,15.08-22.75
					c0.58-0.67,1.46-1.02,2.35-0.92l3.44,0.37c1.7,0.18,2.51,2.18,1.41,3.49C1787.48,607.6,1762.16,640.6,1766.67,671.7z"/>
			</g>
			<path class="st11" d="M1732.38,709.16c-12.65-33.46,6.79-40.81,30.77-49.88c23.98-9.07,43.42-16.42,56.07,17.04
				c9.07,23.98-3.02,50.77-27,59.84C1768.23,745.23,1741.44,733.14,1732.38,709.16z"/>
			<path class="st10" d="M1748.8,696.39c2.35,16.49,11.88,30.19,24.97,38.37c-14.57-3.4-27.25-13.76-32.93-28.81
				c-9.21-24.36-1.42-34.89,12.78-42.3C1748.61,670.54,1746.56,680.75,1748.8,696.39z"/>
		</g>
		<g>
			<path class="st6" d="M2032.41,958.51c0,0,8.64,8.01,6.96,13.7s-9.49,9.49-10.54,16.44c-1.05,6.96-5.27,10.75-9.06,10.75
				c-3.79,0-18.09,0-18.09,0s-2.79-4.89,3.95-6.37c6.74-1.47,9.29-9.65,8.87-17.24c-0.42-7.59,0.63-17.71,0.63-17.71l14.33-3.37
				L2032.41,958.51z"/>
			<path class="st6" d="M1924.7,999.11c-0.21,0.11-0.56,0.21-1.02,0.3h-47.96c0.39-1.68,1.88-5.05,7.66-5.99
				c7.55-1.22,20.65-5.61,23.57-15.28c0.09-0.31,0.18-0.63,0.25-0.95c2.32-10.33,19.18,3.17,19.18,3.17s0.05,0.41,0.12,1.11
				C1926.9,985.24,1927.9,997.51,1924.7,999.11z"/>
			<path class="st24" d="M1885.39,722.85c0,0,2.56,31.95,5.57,70.36c4.09,52.18,9.01,116.27,9.5,128.41
				c0.84,21.08,4.22,54.81,4.22,54.81s8.01,8.01,24.03,4.63c0,0,14.28-48.14,18.36-99.08c0.06-0.83,0.13-1.68,0.19-2.52
				c3.79-51.85,9.69-161.04,9.69-161.04L1885.39,722.85z"/>
			<path class="st25" d="M1885.39,722.85c0,0,2.56,31.95,5.57,70.36l56.1,88.77c0.06-0.83,0.13-1.68,0.19-2.52
				c3.79-51.85,9.69-161.04,9.69-161.04L1885.39,722.85z"/>
			<path class="st24" d="M1897.09,726.65c0,0,46.16,115.72,76.52,170.1c30.35,54.38,39.84,69.56,39.84,69.56s17.39-6.96,18.97-11.7
				c0,0-11.61-104.99-31.93-130.58c-11.49-14.46-24.98-57.86-25.61-73.04c-0.63-15.18-4.11-45.21-4.11-45.21L1897.09,726.65z"/>
		</g>
		<path class="st3" d="M1876.75,544.47c0,0-18.83,33.14-37.25,37.46c0,0,0.77-11.13,5.25-18.75c-1.83-2.17-3.45-4.15-4.84-5.93
			c-4.64-5.94-6.84-9.57-6.84-9.57l6.25-16.8l4.24-11.4c2.04,3.7,4.28,6.85,6.63,9.55C1862.25,542.9,1876.75,544.47,1876.75,544.47z
			"/>
		<path class="st4" d="M1850.19,529.03c0,0,2.25,16.61-10.27,28.22c-4.64-5.94-6.84-9.57-6.84-9.57l6.25-16.8
			C1846.02,528.84,1850.19,529.03,1850.19,529.03z"/>
		<path class="st3" d="M1828.11,550.13c0,0,28.14-10.97,21.04-28.39c-7.1-17.42-8.25-30.57-26.52-24.3
			c-18.27,6.27-19.03,14.33-18.07,20.72C1805.51,524.55,1820.61,552.53,1828.11,550.13z"/>
		<path class="st7" d="M1973.48,714.52c-11.35,16.32-96.23,38.13-95.22,26.83c0.38-4.32,0.9-11.95-0.01-22.28
			c-0.21-2.42-0.51-4.98-0.9-7.7c-2.16-14.85-7.28-33.93-18.7-56.03c-0.86-1.66-1.75-3.32-2.67-5.01
			c-4.7-8.55-8.71-17.6-11.77-26.44c-5.88-16.99-8.25-33.25-5.28-43.88c0.01-0.05,0.03-0.1,0.05-0.15
			c17.74-8.2,24.62-40.02,24.62-40.02s60.53,10.87,94.44,91.55C1958.02,631.39,1983.36,700.32,1973.48,714.52z"/>
		<path class="st8" d="M1878.25,719.07c-0.21-2.42-0.51-4.98-0.9-7.7c-2.16-14.85-7.28-33.93-18.7-56.03
			c1.96-11.89,4.67-21.78,7.64-26.23c12.07-18.09,19.1-20.92,19.1-20.92S1903.49,684.55,1878.25,719.07z"/>
		<path class="st7" d="M1853.19,489.37c0.2-0.39,0.77-0.8,2.17-1.23c0,0-1.31-0.44-2.83-0.1c-0.79-1.93-2.71-5.21-6.31-5.24
			c0,0,2.07,0.54,2.83,2.61c-4.94-3.13-14.08-4.04-36.93,3.57c-30.1,10.03-15.06,27.5-10.5,28.9c4.56,1.4,12.96-7.59,20.52-8.82
			c7.55-1.23,11.64,9.3,14.52,10.17c2.88,0.87,1.24-1.52,4.26-3.92c3.02-2.4,4.75,3.24,4.68,7.21c-0.07,3.96,5.81,7.72,5.81,7.72
			s0,0,3.45-6.33c3.45-6.33,2.51-29.29-0.78-33.43C1853.78,490.12,1853.49,489.75,1853.19,489.37z"/>
		<g>
			<path class="st3" d="M1779.59,701.82c0,0-10.56-0.55-12.9,0s-10.03,5.36-10.03,6.05c0,0.69,0.48,1.17,1.92,1.03
				c1.44-0.14,6.04-1.51,5.84-0.89c-0.21,0.62-13.3,5.5-13.01,8.25c0.3,2.75,8.54,6.6,14.86,5.91c6.32-0.69,17.6-9.65,18.49-10.25
				C1785.65,711.31,1779.59,701.82,1779.59,701.82z"/>
			<path class="st7" d="M1779.67,707.26c-3.36-5.42-0.94-7.89-0.94-7.89s51.73-40.5,55.78-44.59c4.06-4.09,22.84-69.24,22.84-69.24
				s6.46-26.37,21.6-29.27c13.15-2.53,22.25,3.98,28.2,11.61c7.09,9.09,7.79,21.63,1.9,31.55c-13.21,22.25-39.85,66.43-47.63,73.98
				c-17.32,16.8-75.25,40.27-75.25,40.27S1782.31,711.51,1779.67,707.26z"/>
		</g>
		<path class="st26" d="M1819.53,541.78c0,0,1.42,2.56,6.4,0.64c0,0,4.18-1.61,3.02-4.54
			C1828.96,537.88,1824.06,536.99,1819.53,541.78z"/>
	</g>
	<g>
		<path class="st6" d="M1391,663.98c-9.49-4.77-17.27-22.22-16.45-25.34c0.1-0.36,0.54-1.34,1.25-2.78l45.14-19.1
			c0,0-4.84-28.22-19.28-32.07c-0.42-5.5-3.31-17.43-20.63-17.43c0,0,6.82,1.85,10.35,5.55c0,0-14.36-8.43-29.98,4.52
			c-15.63,12.95-5.92,45.44-10.67,51.6c-4.75,6.17-23.26,7.4-20.99,27.34c2.26,19.94,58.73,44.92,55.1,61.42
			c0,0,20.7-30.43,7.74-45.85c2.27,2.56,6.49,8.1,7.06,14.38C1399.63,686.23,1401.73,669.37,1391,663.98z M1391.13,670.33
			c0,0,0.13,0.13,0.36,0.36C1391.38,670.57,1391.26,670.45,1391.13,670.33z"/>
		<path class="st4" d="M1381.25,682.2c-3.47-16.72-25.15-21.9-35.4-8.25c-1.84,2.45-3.14,5.36-3.56,8.78
			c-2.34,18.98,28,96.26,32.34,103.26c7.91,12.74,54.49,56.41,54.49,56.41l8.58-5.2c0,0-33.04-55.93-38.15-61.17
			C1393.63,769.98,1387.84,713.93,1381.25,682.2z"/>
		<path class="st27" d="M1338.46,1023.07l-11.19-1.64c0,0-37.63-29.91-43.24-85.71c-0.57-5.68-0.69-11.44-0.27-17.25
			c0.05-0.67-0.02-1.34-0.39-1.9c0,0,0-0.01-0.01-0.02c-1.2-1.85-4.2-6.47-8.26-13.05c-4-6.48-10.85-18.73-18.38-32.48
			c-13.57-24.76-29.37-54.38-34.79-63.81c-17.27-30.06-8.94-50.28-8.94-50.28s48.17-4.76,61.37-16.31l4.75,7.33
			c0,0,10.44,46.2,9.94,46.42c0.51,1.57,1.04,3.17,1.57,4.8c8.24,25.42,17.71,57.19,22.88,83.07c2.9,14.56,4.44,27.25,3.61,35.89
			c-0.28,2.96,0.06,7.52,0.85,13.15C1322.62,964.41,1338.46,1023.07,1338.46,1023.07z"/>
		<path class="st8" d="M1361.93,1037.23h-46.7c0,0-1.12-7.12,1.32-12.52c2.34-5.18,5.67-5.35,0.42-13.47
			c2.97,3.06,12.51,4.32,19.26,3.41c0.83,1.34,5.33,10.34,8.1,12.32C1347.38,1029.17,1360.99,1028.39,1361.93,1037.23z"/>
		<path class="st28" d="M1290.61,799.15c-4.08,22.5-13.71,59.94-33.9,71.85c-13.57-24.76-29.37-54.38-34.79-63.81
			c-17.27-30.06-8.94-50.28-8.94-50.28s48.17-4.76,61.37-16.31l4.75,7.33c0,0,10.44,46.2,9.94,46.42
			C1289.56,795.92,1290.08,797.52,1290.61,799.15z"/>
		<path class="st27" d="M1257.86,760.39l0.16-8.73c-17.4,2.2-60-20.79-60-20.79s-18.21,12.11-20.7,46.69
			c-1.22,16.88-8.91,88.25-9.76,109.57c-0.31,7.72-0.41,13.24-0.45,15.44c0,0.01,0,0.02,0,0.02c-0.01,0.67-0.33,1.27-0.74,1.8
			c-3.6,4.58-6.72,9.42-9.43,14.45c-26.55,49.4-12.67,116.53-12.67,116.53l6.17-1.57c0,0,22.45-69.59,37.12-99.69
			c2.49-5.1,4.75-9.08,6.65-11.38c5.52-6.7,11.33-18.08,17.07-31.78c10.84-25.89,21.36-60.06,28.87-86.51
			C1240.69,804.53,1257.86,760.39,1257.86,760.39z"/>
		<g>
			<g>
				<path class="st2" d="M1463.16,809.36l-3.05-0.75c9.96-20.14,27.82-35.38,42.51-43.26c12.86-6.9,23.51-9.99,27.34-10.99
					c0.93-0.24,1.92-0.01,2.66,0.62l2.83,2.43c1.4,1.2,0.9,3.48-0.88,3.97C1520.92,765.12,1478.2,778.95,1463.16,809.36z"/>
			</g>
			<path class="st11" d="M1409.73,821.65c9.25-37.49,31.03-32.12,57.9-25.49c26.87,6.63,48.66,12,39.41,49.49
				c-6.63,26.87-33.78,43.28-60.66,36.65C1419.51,875.68,1403.1,848.52,1409.73,821.65z"/>
			<path class="st10" d="M1432.14,820.36c-8.01,16.1-7.93,34.11-1.3,49.41c-10.87-11.94-15.79-28.92-11.63-45.79
				c6.73-27.3,20.11-31.88,37.27-29.77C1447.81,797.27,1439.74,805.09,1432.14,820.36z"/>
		</g>
		<path class="st3" d="M1359.69,702.1c-28.45-6.53-10.27-46.5-8.62-45.8c3.94-0.8,12.6-7.72,20.34-21.24l1.05,0.91l17.47,15.32
			c0,0-4.04,5.96-7.44,11.79c-2.65,4.57-4.91,9.07-4.55,10.61C1379.34,674.8,1367.28,703.84,1359.69,702.1z"/>
		<path class="st4" d="M1389.92,651.29c0,0-4.04,5.95-7.44,11.79c-10.86-6.7-10.87-20.14-10.04-27.11L1389.92,651.29z"/>
		<path class="st3" d="M1390.41,658.97c0,0-26.38-14.67-16.98-30.96c9.39-16.28,12.31-29.15,29.55-20.46
			c17.24,8.68,16.9,16.77,15.08,22.96C1416.25,636.7,1397.51,662.36,1390.41,658.97z"/>
		<path class="st6" d="M1422.51,621.01c-1.21-7.23-4.88-7.92-7.44-7.44c-9.74-16.11-25.65-9.82-25.65-9.82
			c-8.5,10.67-20.79,12.49-20.79,12.49s3.06,5.7,15.67,9.22c3.85,1.08,8.22,0.42,12.44-1c-8.75,4.88-17.9,6.75-17.9,6.75
			c16.62,1.52,32.43-13.67,34.07-15.3c0.77,2.35,2.11,7.28,1.31,10.89c-1.09,4.9-5.44,13.77-2.79,14.91
			C1411.43,641.71,1424.33,631.85,1422.51,621.01z"/>
		<path class="st8" d="M1181.42,1037.23h-46.7c0,0-1.12-7.12,1.32-12.52c2.34-5.18,6-7.54,5.12-13.8c2.97,3.05,7.8,6.48,14.55,5.57
			c0.83,1.34,5.34,8.52,8.1,10.5C1166.87,1029.17,1180.48,1028.39,1181.42,1037.23z"/>
		<path class="st7" d="M1385.87,686.91c-1.93-5.25-5.31-9.94-7.51-12.65c-0.03-1.75-0.08-2.76-0.08-2.76s1.46-3.39-9.66-12.23
			c-16.66-13.24-23.28-10.44-23.28-10.44s-92.63,18.41-147.33,82.03c0,0,8.93,34.01,90.24,37.71c0,0,12.69-13.36,15.56-22.01
			c0.5-1.53,2.13-2.72,4.55-3.68c6.64-2.65,19.32-3.56,31.6-4.91c8.63-0.94,17.06-2.08,23.07-4.18c8.25-2.88,12.12-16.63,13.9-30.48
			C1383.05,694.99,1385.87,686.91,1385.87,686.91z"/>
		<path class="st8" d="M1339.97,737.97c-12.28,1.34-24.96,2.26-31.6,4.91c-2.71-40.55,16.42-71.05,16.42-71.05
			S1337.28,722.63,1339.97,737.97z"/>
		<path class="st3" d="M1352.61,663.98c0,0-30.77,3.04-33.24,23.04c-2.47,20,29.5,101.44,34.08,108.81
			c8.33,13.43,57.42,59.45,57.42,59.45l9.05-5.48c0,0-34.81-58.94-40.21-64.45C1371.24,776.68,1363.03,670.9,1352.61,663.98z"/>
		<path class="st7" d="M1320.25,699.04c0.08,0.46,28.4,9.25,46.63,0c0,0,3.9-42.05-17.86-39.77c-21.76,2.28-34.64,9.14-35.19,19.55
			S1320.25,699.04,1320.25,699.04z"/>
		<path class="st3" d="M1419.91,849.79c0,0,8.46,4.34,11.45,4.69c2.99,0.35,7.04,5.81,7.04,6.69s-6.52-3.17-6.87-1.94
			c-0.35,1.23,3.87,6.16,6.87,6.69c2.99,0.53,9.86,2.47,9.69,3.35c-0.17,0.88-15.26,8.98-22.25,4.93
			c-6.99-4.05-14.98-18.93-14.98-18.93L1419.91,849.79z"/>
	</g>
	<g>
		<path class="st11" d="M849.5,1057.57c0-5.54,4.49-10.02,10.02-10.02c5.53,0,10.02,4.49,10.02,10.02c0,5.54-4.49,10.02-10.02,10.02
			C853.98,1067.59,849.5,1063.11,849.5,1057.57z"/>
		<path class="st3" d="M858.59,1053.12c0-1.74,1.41-3.14,3.14-3.14c1.74,0,3.15,1.41,3.15,3.14c0,1.74-1.41,3.15-3.15,3.15
			C860,1056.27,858.59,1054.86,858.59,1053.12z"/>
	</g>
	<g>
		<path class="st11" d="M918.89,1051.54c0-3.57,2.9-6.47,6.47-6.47s6.47,2.9,6.47,6.47c0,3.57-2.9,6.47-6.47,6.47
			S918.89,1055.11,918.89,1051.54z"/>
		<path class="st3" d="M924.76,1048.67c0-1.12,0.91-2.03,2.03-2.03s2.03,0.91,2.03,2.03s-0.91,2.03-2.03,2.03
			S924.76,1049.79,924.76,1048.67z"/>
	</g>
	<g>
		<path class="st11" d="M891.14,1031.43c0-5.02-4.07-9.09-9.09-9.09c-5.02,0-9.09,4.07-9.09,9.09c0,5.02,4.07,9.08,9.09,9.08
			C887.07,1040.52,891.14,1036.45,891.14,1031.43z"/>
		<path class="st3" d="M882.9,1027.4c0-1.58-1.28-2.85-2.85-2.85c-1.58,0-2.85,1.28-2.85,2.85s1.28,2.85,2.85,2.85
			C881.62,1030.25,882.9,1028.97,882.9,1027.4z"/>
	</g>
	<g>
		<path class="st2" d="M633.54,1216.69c0,0,130.38,47.55,67.33,143.18C700.87,1359.86,604.71,1322.82,633.54,1216.69z"/>
		<g>
			<g>
				<path class="st2" d="M796.75,1282.76l2.83-0.7c-9.22-18.66-25.77-32.77-39.37-40.07c-11.91-6.39-21.78-9.26-25.33-10.18
					c-0.86-0.22-1.78-0.01-2.46,0.57l-2.62,2.25c-1.3,1.11-0.83,3.22,0.82,3.67C743.25,1241.77,782.82,1254.58,796.75,1282.76z"/>
			</g>
			<path class="st11" d="M848.13,1294.14c-8.57-34.73-28.74-29.75-53.64-23.61c-24.89,6.14-45.07,11.12-36.5,45.85
				c6.14,24.89,31.29,40.09,56.18,33.95C839.07,1344.19,854.27,1319.03,848.13,1294.14z"/>
			<path class="st10" d="M827.37,1292.95c7.42,14.92,7.35,31.6,1.21,45.77c10.07-11.06,14.63-26.79,10.77-42.41
				c-6.24-25.29-18.63-29.53-34.52-27.58C812.86,1271.55,820.34,1278.8,827.37,1292.95z"/>
		</g>
		<path class="st2" d="M791.42,1307.41c0,0-19.54,83.46-82.83,51.85C708.59,1359.26,724.22,1297.56,791.42,1307.41z"/>
	</g>
	<g>
		<path class="st2" d="M1064.53,1216.69c0,0,130.38,47.55,67.33,143.18C1131.86,1359.86,1035.69,1322.82,1064.53,1216.69z"/>
		<path class="st2" d="M1222.41,1307.41c0,0-19.54,83.46-82.83,51.85C1139.58,1359.26,1155.21,1297.56,1222.41,1307.41z"/>
	</g>
	<g>
		
			<ellipse transform="matrix(0.2307 -0.973 0.973 0.2307 -789.9 1718.6703)" class="st11" cx="692" cy="1358.9" rx="10.02" ry="10.02"/>
		<path class="st3" d="M691.07,1354.45c0-1.74,1.41-3.15,3.15-3.15c1.74,0,3.15,1.41,3.15,3.15s-1.41,3.15-3.15,3.15
			C692.48,1357.59,691.07,1356.18,691.07,1354.45z"/>
	</g>
	<g>
		<path class="st11" d="M751.37,1352.87c0-3.57,2.9-6.47,6.47-6.47c3.57,0,6.47,2.9,6.47,6.47c0,3.57-2.9,6.47-6.47,6.47
			C754.27,1359.34,751.37,1356.44,751.37,1352.87z"/>
		<path class="st3" d="M757.24,1349.99c0-1.12,0.91-2.03,2.03-2.03c1.12,0,2.03,0.91,2.03,2.03s-0.91,2.03-2.03,2.03
			C758.15,1352.03,757.24,1351.12,757.24,1349.99z"/>
	</g>
	<g>
		<path class="st11" d="M723.62,1332.76c0-5.02-4.07-9.09-9.08-9.09c-5.02,0-9.09,4.07-9.09,9.09c0,5.02,4.07,9.09,9.09,9.09
			C719.56,1341.85,723.62,1337.78,723.62,1332.76z"/>
		<path class="st3" d="M715.38,1328.73c0-1.57-1.28-2.85-2.85-2.85c-1.58,0-2.85,1.28-2.85,2.85c0,1.58,1.28,2.85,2.85,2.85
			C714.11,1331.58,715.38,1330.3,715.38,1328.73z"/>
	</g>
	<g>
		<path class="st11" d="M1098.67,1346.88c0-5.54,4.49-10.02,10.02-10.02s10.02,4.49,10.02,10.02c0,5.54-4.49,10.02-10.02,10.02
			S1098.67,1352.42,1098.67,1346.88z"/>
		<circle class="st3" cx="1110.9" cy="1342.43" r="3.15"/>
	</g>
	<g>
		<path class="st11" d="M1171.02,1364.26c0-5.02-4.07-9.09-9.09-9.09c-5.02,0-9.09,4.07-9.09,9.09c0,5.02,4.07,9.08,9.09,9.08
			C1166.95,1373.35,1171.02,1369.28,1171.02,1364.26z"/>
		<path class="st3" d="M1162.78,1360.23c0-1.57-1.28-2.85-2.85-2.85c-1.57,0-2.85,1.28-2.85,2.85c0,1.58,1.28,2.85,2.85,2.85
			C1161.5,1363.08,1162.78,1361.8,1162.78,1360.23z"/>
	</g>
	<g>
		<path class="st11" d="M1525.38,1346.24c0-4.83,3.92-8.75,8.75-8.75c4.83,0,8.75,3.92,8.75,8.75c0,4.83-3.92,8.75-8.75,8.75
			C1529.29,1354.99,1525.38,1351.07,1525.38,1346.24z"/>
		<path class="st3" d="M1533.31,1342.36c0-1.52,1.23-2.74,2.74-2.74s2.75,1.23,2.75,2.74c0,1.52-1.23,2.75-2.75,2.75
			S1533.31,1343.87,1533.31,1342.36z"/>
	</g>
	<g>
		<path class="st11" d="M1637.91,1346.89c0-3.37-2.73-6.11-6.11-6.11c-3.37,0-6.11,2.73-6.11,6.11c0,3.37,2.73,6.11,6.11,6.11
			C1635.18,1352.99,1637.91,1350.26,1637.91,1346.89z"/>
		<path class="st3" d="M1632.38,1344.17c0-1.06-0.86-1.92-1.92-1.92c-1.06,0-1.92,0.86-1.92,1.92c0,1.06,0.86,1.92,1.92,1.92
			C1631.52,1346.09,1632.38,1345.23,1632.38,1344.17z"/>
	</g>
	<g>
		<path class="st11" d="M1560.45,1359.1c0-3.37-2.73-6.11-6.11-6.11c-3.37,0-6.11,2.73-6.11,6.11c0,3.37,2.73,6.11,6.11,6.11
			C1557.71,1365.21,1560.45,1362.47,1560.45,1359.1z"/>
		<path class="st3" d="M1554.91,1356.39c0-1.06-0.86-1.92-1.92-1.92s-1.92,0.86-1.92,1.92s0.86,1.92,1.92,1.92
			S1554.91,1357.45,1554.91,1356.39z"/>
	</g>
	<g>
		<path class="st11" d="M1025.95,747.82c0-3.5,2.84-6.33,6.33-6.33c3.5,0,6.34,2.84,6.34,6.33c0,3.5-2.84,6.34-6.34,6.34
			C1028.78,754.16,1025.95,751.32,1025.95,747.82z"/>
		<path class="st3" d="M1031.69,745.01c0-1.1,0.89-1.99,1.99-1.99c1.1,0,1.99,0.89,1.99,1.99c0,1.1-0.89,1.99-1.99,1.99
			C1032.58,747,1031.69,746.11,1031.69,745.01z"/>
	</g>
	<g>
		<path class="st21" d="M1105.82,741.55c1.6-3.45,5.7-4.95,9.15-3.34c3.45,1.6,4.95,5.7,3.35,9.15c-1.6,3.45-5.7,4.95-9.15,3.35
			C1105.72,749.1,1104.22,745,1105.82,741.55z"/>
		<path class="st29" d="M1111.43,741.39c0-1.19,0.97-2.16,2.16-2.16s2.16,0.97,2.16,2.16c0,1.19-0.97,2.16-2.16,2.16
			S1111.43,742.59,1111.43,741.39z"/>
	</g>
	<g>
		<path class="st21" d="M997.53,743.6c1.73-3.72,6.14-5.33,9.86-3.61c3.72,1.73,5.34,6.14,3.61,9.86c-1.73,3.72-6.15,5.33-9.86,3.61
			C997.41,751.74,995.8,747.32,997.53,743.6z"/>
		<path class="st29" d="M1003.57,743.43c0-1.29,1.04-2.33,2.33-2.33c1.29,0,2.33,1.04,2.33,2.33c0,1.29-1.04,2.33-2.33,2.33
			C1004.61,745.76,1003.57,744.72,1003.57,743.43z"/>
	</g>
	<g>
		<path class="st11" d="M1071.45,732.71c0-4.85-3.93-8.78-8.78-8.78c-4.85,0-8.78,3.93-8.78,8.78c0,4.85,3.93,8.78,8.78,8.78
			C1067.52,741.49,1071.45,737.56,1071.45,732.71z"/>
		<path class="st3" d="M1063.48,728.81c0-1.52-1.23-2.75-2.75-2.75s-2.75,1.23-2.75,2.75c0,1.52,1.23,2.75,2.75,2.75
			S1063.48,730.33,1063.48,728.81z"/>
	</g>
	<g>
		<circle class="st11" cx="1566.37" cy="726.5" r="7.4"/>
		<path class="st3" d="M1565.68,723.22c0-1.28,1.04-2.32,2.32-2.32s2.32,1.04,2.32,2.32c0,1.28-1.04,2.32-2.32,2.32
			S1565.68,724.5,1565.68,723.22z"/>
	</g>
	<g>
		<path class="st11" d="M1476.97,723.98c0-4.17,3.38-7.54,7.54-7.54s7.54,3.38,7.54,7.54c0,4.17-3.38,7.55-7.54,7.55
			S1476.97,728.15,1476.97,723.98z"/>
		<path class="st3" d="M1483.81,720.63c0-1.31,1.06-2.37,2.37-2.37c1.31,0,2.37,1.06,2.37,2.37c0,1.31-1.06,2.37-2.37,2.37
			C1484.87,723,1483.81,721.94,1483.81,720.63z"/>
	</g>
	<g>
		<path class="st21" d="M1582.9,742.4c1.62-3.48,5.75-4.99,9.23-3.37c3.48,1.62,4.99,5.75,3.37,9.23c-1.62,3.48-5.75,4.99-9.23,3.37
			C1582.79,750.01,1581.28,745.88,1582.9,742.4z"/>
		<circle class="st29" cx="1590.73" cy="742.24" r="2.18"/>
	</g>
	<g>
		<circle class="st11" cx="1243.18" cy="482.78" r="8.11"/>
		<path class="st3" d="M1242.43,479.18c0-1.41,1.14-2.55,2.55-2.55s2.55,1.14,2.55,2.55c0,1.41-1.14,2.55-2.55,2.55
			S1242.43,480.59,1242.43,479.18z"/>
	</g>
	<g>
		<path class="st21" d="M1265.02,497.39c1.06-2.28,3.76-3.26,6.04-2.2c2.28,1.06,3.26,3.76,2.21,6.04
			c-1.06,2.28-3.76,3.26-6.04,2.21C1264.95,502.37,1263.96,499.67,1265.02,497.39z"/>
		<path class="st29" d="M1268.72,497.29c0-0.79,0.64-1.42,1.43-1.42s1.43,0.64,1.43,1.42c0,0.79-0.64,1.43-1.43,1.43
			S1268.72,498.08,1268.72,497.29z"/>
	</g>
	<g>
		<path class="st11" d="M1455.33,488.09c0-3.94,3.2-7.14,7.14-7.14s7.14,3.19,7.14,7.14c0,3.94-3.2,7.14-7.14,7.14
			S1455.33,492.03,1455.33,488.09z"/>
		<path class="st3" d="M1461.8,484.92c0-1.24,1-2.24,2.24-2.24s2.24,1,2.24,2.24s-1,2.24-2.24,2.24S1461.8,486.15,1461.8,484.92z"/>
	</g>
	<g>
		<path class="st21" d="M1347.41,484.55c1.49-3.2,5.29-4.59,8.49-3.1c3.2,1.49,4.59,5.29,3.1,8.49c-1.49,3.2-5.29,4.59-8.49,3.1
			C1347.31,491.56,1345.92,487.76,1347.41,484.55z"/>
		<path class="st29" d="M1352.61,484.41c0-1.11,0.9-2.01,2.01-2.01c1.11,0,2.01,0.9,2.01,2.01c0,1.11-0.9,2.01-2.01,2.01
			C1353.51,486.42,1352.61,485.52,1352.61,484.41z"/>
	</g>
	<g>
		<path class="st11" d="M1643.99,723.22c0-5.3-4.3-9.6-9.6-9.6s-9.6,4.3-9.6,9.6c0,5.3,4.3,9.6,9.6,9.6
			S1643.99,728.52,1643.99,723.22z"/>
		<path class="st3" d="M1635.28,718.95c0-1.66-1.35-3.01-3.01-3.01c-1.66,0-3.01,1.35-3.01,3.01c0,1.66,1.35,3.01,3.01,3.01
			C1633.93,721.97,1635.28,720.62,1635.28,718.95z"/>
	</g>
	<path class="st2" d="M1701.05,899.69c0,0-130.38,47.55-67.33,143.18C1633.72,1042.87,1729.89,1005.82,1701.05,899.69z"/>
	<path class="st2" d="M1543.17,990.42c0,0,19.54,83.46,82.83,51.85C1626,1042.26,1610.37,980.56,1543.17,990.42z"/>
	<g>
		<path class="st11" d="M1558.96,1033.62c0-4.09,3.31-7.4,7.4-7.4c4.09,0,7.4,3.32,7.4,7.4c0,4.09-3.32,7.4-7.4,7.4
			C1562.28,1041.03,1558.96,1037.71,1558.96,1033.62z"/>
		<path class="st3" d="M1565.68,1030.34c0-1.28,1.04-2.32,2.32-2.32s2.32,1.04,2.32,2.32s-1.04,2.32-2.32,2.32
			S1565.68,1031.62,1565.68,1030.34z"/>
	</g>
	<g>
		<path class="st21" d="M1582.9,1049.52c1.62-3.48,5.75-4.99,9.23-3.37c3.48,1.62,4.99,5.75,3.37,9.23s-5.75,4.99-9.23,3.37
			C1582.79,1057.13,1581.28,1053,1582.9,1049.52z"/>
		<path class="st29" d="M1588.55,1049.36c0-1.2,0.98-2.18,2.18-2.18s2.18,0.98,2.18,2.18c0,1.2-0.98,2.18-2.18,2.18
			S1588.55,1050.57,1588.55,1049.36z"/>
	</g>
	<g>
		<path class="st11" d="M1643.99,1030.34c0-5.3-4.3-9.6-9.6-9.6s-9.6,4.3-9.6,9.6c0,5.3,4.3,9.6,9.6,9.6
			S1643.99,1035.64,1643.99,1030.34z"/>
		<path class="st3" d="M1635.28,1026.07c0-1.66-1.35-3.01-3.01-3.01c-1.66,0-3.01,1.35-3.01,3.01c0,1.66,1.35,3.01,3.01,3.01
			C1633.93,1029.08,1635.28,1027.74,1635.28,1026.07z"/>
	</g>
	<g>
		<g>
			<path class="st11" d="M1582.23,1277.31l2.83-0.7c-9.22-18.66-25.77-32.77-39.37-40.07c-11.91-6.39-21.78-9.26-25.32-10.18
				c-0.86-0.23-1.78-0.01-2.46,0.57l-2.62,2.25c-1.3,1.11-0.83,3.22,0.82,3.67C1528.73,1236.33,1568.3,1249.13,1582.23,1277.31z"/>
		</g>
		<path class="st2" d="M1630.45,1288.69c-8.57-34.73-28.74-29.75-53.64-23.61c-24.89,6.14-45.07,11.12-36.5,45.85
			c6.14,24.89,31.29,40.09,56.19,33.95C1621.38,1338.74,1636.59,1313.58,1630.45,1288.69z"/>
		<path class="st2" d="M1608.89,1289.42c7.42,14.92,7.35,31.6,1.21,45.77c10.07-11.06,14.63-26.79,10.77-42.41
			c-6.24-25.29-18.63-29.54-34.52-27.58C1594.38,1268.03,1601.86,1275.28,1608.89,1289.42z"/>
	</g>
	<g>
		<g>
			<path class="st11" d="M1738.83,995.3l-2.16-0.53c7.04-14.23,19.66-25,30.03-30.56c9.08-4.87,16.61-7.06,19.32-7.77
				c0.66-0.17,1.36-0.01,1.88,0.44l2,1.72c0.99,0.85,0.63,2.46-0.62,2.8C1779.64,964.04,1749.46,973.81,1738.83,995.3z"/>
		</g>
		<path class="st2" d="M1702.06,1003.98c6.54-26.49,21.93-22.69,40.91-18.01c18.99,4.68,34.38,8.48,27.84,34.97
			c-4.68,18.99-23.87,30.58-42.86,25.9C1708.97,1042.16,1697.38,1022.97,1702.06,1003.98z"/>
		<path class="st2" d="M1718.5,1004.54c-5.66,11.38-5.6,24.1-0.92,34.91c-7.68-8.44-11.16-20.44-8.22-32.35
			c4.76-19.29,14.21-22.53,26.33-21.04C1729.57,988.22,1723.87,993.75,1718.5,1004.54z"/>
	</g>
	<path class="st8" d="M2728.46,1430H133.65c-1.62,0-2.95-1.33-2.95-2.95v-1c0-1.62,1.33-2.95,2.95-2.95h2594.81
		c1.62,0,2.95,1.33,2.95,2.95v1C2731.41,1428.68,2730.08,1430,2728.46,1430z"/>
</g>
</svg>
