<svg xmlns="http://www.w3.org/2000/svg" width="68.072" height="68.072" viewBox="0 0 68.072 68.072">
  <path id="_021-facebook" data-name="021-facebook" d="M9.972,68.072h22.2v-24.2H24.2V35.9h7.977V25.926a9.983,9.983,0,0,1,9.972-9.972h9.972v7.977H44.141a3.993,3.993,0,0,0-3.989,3.989V35.9H51.758l-1.33,7.977H40.152v24.2H58.1A9.983,9.983,0,0,0,68.072,58.1V9.972A9.983,9.983,0,0,0,58.1,0H9.972A9.983,9.983,0,0,0,0,9.972V58.1A9.983,9.983,0,0,0,9.972,68.072ZM3.989,9.972A5.99,5.99,0,0,1,9.972,3.989H58.1a5.99,5.99,0,0,1,5.983,5.983V58.1A5.99,5.99,0,0,1,58.1,64.084H44.141V47.863h9.667l2.659-15.954H44.141V27.92H56.106V11.966H42.146a13.976,13.976,0,0,0-13.96,13.96v5.983H20.209V47.863h7.977v16.22H9.972A5.99,5.99,0,0,1,3.989,58.1Zm0,0" fill="#a87777"/>
</svg>
