<?xml version="1.0" encoding="utf-8"?>
<!-- Generator: Adobe Illustrator 24.1.3, SVG Export Plug-In . SVG Version: 6.00 Build 0)  -->
<svg version="1.1" id="Layer_1" xmlns="http://www.w3.org/2000/svg" xmlns:xlink="http://www.w3.org/1999/xlink" x="0px" y="0px"
	 viewBox="0 0 800 800" style="enable-background:new 0 0 800 800;" xml:space="preserve">
<style type="text/css">
	.st0{fill:#FFFFFF;}
	.st1{fill:none;stroke:#414042;stroke-width:12;stroke-miterlimit:10;}
	.st2{font-family:'MascotMVB';}
	.st3{font-size:358.1824px;}
</style>
<circle class="st0" cx="399.06" cy="414.92" r="287.89"/>
<path d="M713.5,458.45c0.01,0,0.01,0,0.02,0c11.15,0.02,17.18-8.66,17.18-17.31c0-7.34-4.35-14.66-13.61-16.62
	c-9.07-1.92-13.61-9.35-13.61-16.78s4.54-14.86,13.61-16.78c20.16-4.27,17.05-33.94-3.55-33.94c-0.01,0-0.01,0-0.02,0
	c-10.85,0.01-17.19-8.65-17.19-17.36c0-6.16,3.18-12.35,10.21-15.47c17.53-7.78,10.77-32.89-6.48-32.89c-1.3,0-2.65,0.14-4.06,0.44
	c-12.1,2.59-20.81-7.08-20.81-17.04c0-4.96,2.17-10,7.16-13.62c14.43-10.46,5.23-31.2-9.69-31.2c-2.34,0-4.82,0.51-7.37,1.65
	c-12.61,5.63-24.27-4.55-24.27-15.8c0-3.86,1.37-7.84,4.54-11.35c11.03-12.23,0.5-28.85-12.68-28.85c-3.32,0-6.8,1.05-10.15,3.49
	c-12.26,8.93-27.37-1.04-27.37-13.75c0-2.83,0.74-5.78,2.43-8.7c7.54-13.05-3.33-25.93-15.11-25.93c-4.33,0-8.79,1.74-12.5,5.87
	c-11.02,12.27-29.99,3.38-29.99-11.15c0-1.8,0.3-3.69,0.93-5.63c4.21-12.91-6.19-22.58-16.71-22.58c-5.46,0-10.95,2.6-14.46,8.7
	c-8.91,15.46-32.03,8.64-32.03-8.31c0-0.67,0.04-1.36,0.11-2.06c1.26-11.91-8.07-19-17.35-19c-6.7,0-13.37,3.69-16.03,11.91
	c-5.71,17.64-31.46,14.93-33.38-3.51c-1.07-10.26-9.06-15.38-17.06-15.38s-15.99,5.12-17.06,15.38
	c-1.04,10.01-9.11,15.39-17.18,15.39c-6.79,0-13.59-3.82-16.2-11.88c-6.12-18.92-33.49-13.82-33.49,4.94c0,0.7,0.04,1.42,0.12,2.15
	c1.23,11.56-7.99,19.01-17.32,19.01c-5.55,0-11.15-2.64-14.6-8.64c-9.23-16.02-32.13-7.9-32.13,8.09c0,1.83,0.3,3.77,0.96,5.79
	c4.06,12.46-5.94,22.57-16.53,22.57c-4.4,0-8.9-1.74-12.54-5.79c-11.46-12.76-30.1-2.76-30.1,11.23c0,2.83,0.76,5.83,2.5,8.83
	c7.26,12.54-2.92,25.87-14.87,25.87c-3.34,0-6.81-1.04-10.08-3.42c-12.75-9.28-27.45,1.54-27.45,13.99c0,3.81,1.38,7.78,4.62,11.37
	c10.62,11.75,1.06,28.75-12.5,28.75c-2.32,0-4.75-0.5-7.22-1.6c-13.09-5.84-24.3,4.88-24.3,16.02c0,4.88,2.15,9.84,7.24,13.53
	c13.89,10.07,5.91,31.09-9.74,31.09c-1.26,0-2.57-0.14-3.92-0.43c-12.51-2.67-20.8,7.24-20.8,17.15c0,6.06,3.11,12.13,10.26,15.3
	c16.94,7.53,11.56,32.83-6.96,32.83c-0.01,0-0.01,0-0.02,0c-11.14-0.01-17.17,8.66-17.17,17.31c0,7.35,4.35,14.67,13.61,16.63
	c9.07,1.92,13.6,9.35,13.6,16.78s-4.53,14.86-13.6,16.78c-20.16,4.26-17.05,33.93,3.53,33.93h0.03c10.85-0.01,17.2,8.66,17.2,17.36
	c0,6.17-3.19,12.35-10.22,15.47c-17.52,7.79-10.77,32.89,6.48,32.89c1.3,0,2.65-0.14,4.06-0.44c12.1-2.58,20.82,7.09,20.82,17.04
	c0,4.97-2.17,10-7.16,13.62c-14.44,10.46-5.24,31.2,9.69,31.2c2.34,0,4.82-0.51,7.37-1.65c12.61-5.63,24.27,4.55,24.27,15.8
	c0,3.86-1.38,7.84-4.55,11.36c-11.03,12.22-0.5,28.84,12.68,28.84c3.32,0,6.8-1.05,10.15-3.49c12.27-8.93,27.38,1.05,27.38,13.76
	c0,2.82-0.74,5.78-2.43,8.7c-7.55,13.04,3.32,25.93,15.1,25.93c4.34,0,8.79-1.75,12.5-5.87c11.02-12.28,30-3.38,30,11.15
	c0,1.8-0.3,3.69-0.93,5.63c-4.21,12.91,6.18,22.58,16.7,22.58c5.46,0,10.96-2.6,14.47-8.7c8.9-15.46,32.03-8.64,32.03,8.31
	c0,0.67-0.04,1.36-0.11,2.06c-1.27,11.91,8.06,18.99,17.34,18.99c6.7,0,13.37-3.68,16.03-11.9c2.61-8.06,9.41-11.88,16.2-11.88
	c8.07,0,16.14,5.38,17.18,15.39c1.07,10.25,9.06,15.38,17.06,15.38s15.99-5.13,17.06-15.38c1.04-10.01,9.11-15.39,17.18-15.39
	c6.79,0,13.59,3.82,16.2,11.88c6.12,18.91,33.49,13.82,33.49-4.95c0-0.7-0.03-1.41-0.11-2.14c-1.23-11.56,7.98-19.01,17.31-19.01
	c5.56,0,11.15,2.64,14.61,8.64c9.22,16.02,32.13,7.9,32.13-8.09c0-1.84-0.3-3.77-0.96-5.79c-4.06-12.46,5.94-22.58,16.53-22.58
	c4.39,0,8.89,1.75,12.53,5.8c11.46,12.75,30.11,2.75,30.11-11.24c0-2.83-0.77-5.82-2.5-8.82c-7.26-12.55,2.92-25.88,14.87-25.88
	c3.33,0,6.8,1.04,10.07,3.42c12.75,9.29,27.45-1.53,27.45-13.98c0-3.81-1.38-7.78-4.62-11.37c-10.61-11.76-1.05-28.76,12.51-28.76
	c2.32,0,4.75,0.5,7.22,1.6c13.09,5.85,24.29-4.88,24.29-16.02c0-4.88-2.15-9.84-7.23-13.53c-13.89-10.07-5.9-31.08,9.74-31.08
	c1.26,0,2.56,0.13,3.91,0.42c12.51,2.67,20.81-7.24,20.81-17.14c0-6.07-3.11-12.13-10.27-15.31
	C689.61,483.76,694.98,458.45,713.5,458.45z M395.56,680.65c-151.56,0-274.41-122.85-274.41-274.41
	c0-151.55,122.85-274.41,274.41-274.41c151.55,0,274.41,122.86,274.41,274.41C669.97,557.8,547.11,680.65,395.56,680.65z"/>
<circle class="st0" cx="395.56" cy="406.24" r="274.41"/>
<circle class="st0" cx="395.56" cy="406.24" r="274.41"/>
<g>
	<path d="M251.63,326.16c-4.99,1.25-11.65,2.08-17.47,2.08c-9.15-4.58-9.98-19.55-8.74-31.2l14.98-4.99
		c16.64-5.41,27.46-9.98,46.18-23.71c14.14-13.31,21.63-20.8,23.3-35.36c1.25-7.9-3.33-12.48-11.65-12.48
		c-11.65,0-31.62,9.98-49.92,30.78c-9.15-5.41-18.3-13.73-17.47-23.71c0.83-10.82,54.08-49.09,86.95-49.09
		c28.7,0,47.01,18.3,47.01,37.44c0,21.63-11.65,47.01-63.65,76.55c21.22,6.66,42.02,31.62,42.43,61.15
		c0,42.43-63.65,82.37-105.25,82.37c-32.45,0-48.26-27.46-47.42-38.69c0.83-15.39,11.23-24.54,29.12-24.54
		c5.82,0,12.06,1.25,19.14,3.74v4.16c0,12.06-0.42,24.55,7.07,24.55c26.21,0,44.1-22.88,46.18-47.43
		c0.83-11.65-5.82-33.7-22.05-33.7C266.19,324.08,258.28,325.33,251.63,326.16z"/>
</g>
<line class="st1" x1="504.03" y1="230.27" x2="250.85" y2="559.42"/>
<text transform="matrix(0.8636 0 0 1 377.4398 638.4716)" class="st2 st3">T</text>
</svg>
