<svg id="_025-instagram" data-name="025-instagram" xmlns="http://www.w3.org/2000/svg" width="68.072" height="68.072" viewBox="0 0 68.072 68.072">
  <path id="Path_1" data-name="Path 1" d="M9.972,68.072H58.1A9.983,9.983,0,0,0,68.072,58.1V9.972A9.983,9.983,0,0,0,58.1,0H9.972A9.983,9.983,0,0,0,0,9.972V58.1A9.983,9.983,0,0,0,9.972,68.072ZM3.989,9.972A5.99,5.99,0,0,1,9.972,3.989H58.1a5.99,5.99,0,0,1,5.983,5.983V58.1A5.99,5.99,0,0,1,58.1,64.084H9.972A5.99,5.99,0,0,1,3.989,58.1Zm0,0" fill="#a87777"/>
  <path id="Path_2" data-name="Path 2" d="M138.949,156.9A17.949,17.949,0,1,0,121,138.949,17.969,17.969,0,0,0,138.949,156.9Zm0-31.909a13.96,13.96,0,1,1-13.96,13.96A13.976,13.976,0,0,1,138.949,124.989Zm0,0" transform="translate(-104.913 -104.913)" fill="#a87777"/>
  <path id="Path_3" data-name="Path 3" d="M366.983,72.966A5.983,5.983,0,1,0,361,66.983,5.99,5.99,0,0,0,366.983,72.966Zm0-7.977a1.994,1.994,0,1,1-1.994,1.994A2,2,0,0,1,366.983,64.989Zm0,0" transform="translate(-313.004 -52.89)" fill="#a87777"/>
</svg>
