<svg xmlns="http://www.w3.org/2000/svg" width="68.072" height="55.714" viewBox="0 0 68.072 55.714">
  <path id="_043-twitter" data-name="043-twitter" d="M68.072,7.441c-4.282.2-4.189.181-4.673.222L65.935.42S58.02,3.332,56.013,3.853a15.882,15.882,0,0,0-18.7-1.5A12.955,12.955,0,0,0,31.081,15.67,34.553,34.553,0,0,1,8.7,3.067L6.818.812l-1.4,2.577A15.573,15.573,0,0,0,3.756,13.873a15.062,15.062,0,0,0,1.459,4.092L3.6,17.341l-.191,2.692A14.362,14.362,0,0,0,5.849,28.57a15.182,15.182,0,0,0,1.9,2.34l-.833-.128L7.93,33.866A14.994,14.994,0,0,0,15.637,42.8c-3.594,1.525-6.5,2.5-11.271,4.069L0,48.3l4.033,2.205A42.334,42.334,0,0,0,16.374,55c11.935,1.872,25.372.347,34.418-7.8,7.619-6.862,10.12-16.623,9.6-26.781a6.347,6.347,0,0,1,1.186-4.132c1.689-2.256,6.484-8.829,6.494-8.844ZM58.389,13.9a10.335,10.335,0,0,0-1.977,6.725c.524,10.246-2.264,18.192-8.287,23.616-7.036,6.337-18.384,8.824-31.134,6.824a30.875,30.875,0,0,1-6.671-1.982A105.772,105.772,0,0,0,22.4,44.112l6.967-3.3-7.692-.492A10.878,10.878,0,0,1,13.04,35.4a13.8,13.8,0,0,0,2.928-.488L23.3,32.871l-7.4-1.811a11.017,11.017,0,0,1-6.729-4.68,11.283,11.283,0,0,1-1.458-3.218,18.466,18.466,0,0,0,3,.479l6.847.677-5.425-4.232A11.418,11.418,0,0,1,7.815,8.054c12.2,12.652,26.521,11.7,27.963,12.036a23.616,23.616,0,0,0-.409-3.383c-1.846-6.527,2.2-9.841,4.025-10.962,3.812-2.343,9.863-2.7,14.054,1.164a3.569,3.569,0,0,0,3.275.876,27.565,27.565,0,0,0,2.7-.821L57.7,11.876l2.2,0c-.414.556-.911,1.221-1.509,2.019Zm0,0" transform="translate(0 0)" fill="#a87777"/>
</svg>
