<?xml version="1.0" encoding="utf-8"?>
<!-- Generator: Adobe Illustrator 24.2.0, SVG Export Plug-In . SVG Version: 6.00 Build 0)  -->
<svg version="1.1" id="Capa_1" xmlns="http://www.w3.org/2000/svg" xmlns:xlink="http://www.w3.org/1999/xlink" x="0px" y="0px"
	 viewBox="0 0 512 512" style="enable-background:new 0 0 512 512;" xml:space="preserve">
<style type="text/css">
	.st0{fill:#A87777;}
</style>
<g>
	<g>
		<circle class="st0" cx="409" cy="353.8" r="10"/>
		<path class="st0" d="M504.3,96.1c-5-11.7-12-22.2-21.1-31.3c-9-9-19.6-16.1-31.3-21.1c-12.1-5.1-25-7.7-38.3-7.7h0
			c-8.3,0-16.6,1-24.5,3.1c-7.7,2-15.2,4.9-22.3,8.8C341,17.5,303.5,0,263.7,0c-10.9,0-21.7,1.3-32.1,3.8
			c-10.2,2.5-20,6.2-29.4,10.9c-9.1,4.7-17.8,10.5-25.7,17.1c-7.8,6.6-14.9,14.1-21,22.4c-8.1-5.8-17.1-10.3-26.6-13.4
			c-9.8-3.2-20.1-4.8-30.5-4.8h0c-13.3,0-26.2,2.6-38.3,7.7c-11.7,5-22.2,12-31.3,21.1c-9,9-16.1,19.6-21.1,31.3
			c-5.1,12.1-7.7,25-7.7,38.3c0,25.5,9.7,49.7,27.4,68.1c8.6,9,18.6,16.1,29.9,21.3c11.6,5.3,23.9,8.3,36.7,8.9l19.3,270
			c0.2,2.5,1.3,4.9,3.2,6.6c1.8,1.7,4.3,2.7,6.8,2.7h275.2c2.5,0,5-1,6.8-2.7c1.9-1.7,3-4.1,3.2-6.6l7.4-103.3
			c0.2-2.7-0.7-5.2-2.4-7.3s-4.2-3.2-6.8-3.4c-0.2,0-0.5,0-0.7,0c-5.2,0-9.6,4.1-10,9.3v0l-3.8,53h-59.8l2.3-33.1
			c0.4-5.5-3.8-10.3-9.3-10.7c-5.5-0.4-10.3,3.8-10.7,9.3l-2.4,34.5H209l-2.4-34.5c-0.4-5.5-5.2-9.7-10.7-9.3
			c-5.5,0.4-9.7,5.2-9.3,10.7l2.3,33.1H130c-0.1,0-0.3,0-0.4,0l-15.7-219.5c10.1-1.8,20.4-5.3,29.8-10.1c4.9-2.5,6.8-8.6,4.3-13.5
			c-2.5-4.9-8.6-6.8-13.5-4.3c-10.1,5.3-21.4,8.5-31.8,9.1c-1.4,0.1-2.8,0.1-4.2,0.1c-20.9,0-40.6-8.2-55.5-23
			c-14.8-14.8-23-34.5-23-55.4c0-20.9,8.2-40.6,23-55.4c14.8-14.8,34.5-23,55.5-23c16.8,0,33,5.4,46.4,15.2
			c-3.6,6.5-6.4,12.6-8.4,18.3c-1.8,5.2,0.9,10.9,6.1,12.8c1.1,0.4,2.2,0.6,3.3,0.6c4.1,0,8-2.6,9.4-6.7
			c2.4-6.7,11.7-23.2,11.9-23.6c21.3-33,57.3-52.6,96.6-52.6c36.5,0,70,16.8,92,46c0.1,0.1,12.7,19.9,16.1,29.3
			c1.5,4.1,5.3,6.6,9.4,6.6c1.1,0,2.3-0.2,3.4-0.6c5.2-1.9,7.9-7.6,6-12.8c-2.9-8-7-16.2-12-24.3c10.8-5.4,22.7-8.2,35-8.2
			c20.9,0,40.6,8.2,55.5,23c14.8,14.8,23,34.5,23,55.4c0,41.7-32.5,76-74.1,78.3c-0.3,0-3.4,0-4.9,0c-13.2,0-25.7-3.4-38-10.4
			c-4.8-2.7-10.9-1-13.6,3.8s-1,10.9,3.8,13.6c13.6,7.7,27.9,12,42.6,12.9l-5.4,75.6c-0.4,5.5,3.8,10.3,9.3,10.7c0.2,0,0.5,0,0.7,0
			h0c5.2,0,9.6-4.1,10-9.3l5.6-77.8c23.2-3.3,44.5-14.9,60-32.7c7.7-8.8,13.6-18.7,17.8-29.6c4.3-11.2,6.5-23,6.5-35.2
			C512,121.1,509.4,108.2,504.3,96.1L504.3,96.1z M390.6,471l-1.5,21H132.5l-1.5-21H390.6z"/>
	</g>
</g>
</svg>
