<?xml version="1.0" encoding="utf-8"?>
<!-- Generator: Adobe Illustrator 24.2.0, SVG Export Plug-In . SVG Version: 6.00 Build 0)  -->
<svg version="1.1" id="Layer_1" xmlns="http://www.w3.org/2000/svg" xmlns:xlink="http://www.w3.org/1999/xlink" x="0px" y="0px"
	 viewBox="0 0 512 512" style="enable-background:new 0 0 512 512;" xml:space="preserve">
<style type="text/css">
	.st0{fill:#A87777;}
</style>
<path class="st0" d="M469.3,119.3H360.9c14.1-12.5,23-30.8,23-51.1c0-57-66.1-88.7-110.5-53.6c-3.7,2.9-4.3,8.3-1.4,12
	c2.9,3.7,8.3,4.3,12,1.4c33.3-26.3,82.9-2.6,82.9,40.2c0,27.1-21.1,49.3-47.7,51.1h-54.7v-51c0-37.6-30.6-68.2-68.2-68.2
	S128,30.7,128,68.3c0,20.3,8.9,38.5,23,51H42.7c-23.5,0-42.7,19.1-42.7,42.6v44c0,21.3,15.8,39.1,36.3,42.2v221.2
	c0,23.5,19.1,42.6,42.7,42.6h354c23.5,0,42.6-19.1,42.6-42.6V285.8c0-4.7-3.8-8.5-8.5-8.5s-8.5,3.8-8.5,8.5v183.5
	c0,14.1-11.5,25.6-25.6,25.6H226.1V248.6h59.7v215.6c0,4.7,3.8,8.5,8.5,8.5s8.5-3.8,8.5-8.5V248.6h94.9c4.7,0,8.5-3.8,8.5-8.5
	s-3.8-8.5-8.5-8.5h-56.5v-95.2h128c14.1,0,25.6,11.5,25.6,25.6v44c0,14.1-11.5,25.6-25.6,25.6h-16.5c-4.7,0-8.5,3.8-8.5,8.5
	s3.8,8.5,8.5,8.5h16.5c23.5,0,42.6-19.1,42.6-42.6v-44C511.9,138.5,492.8,119.3,469.3,119.3z M145.1,68.3c0-28.2,23-51.2,51.2-51.2
	s51.2,23,51.2,51.2v51h-54.7C166.2,117.5,145.1,95.3,145.1,68.3z M209.1,494.9H79c-14.1,0-25.6-11.5-25.6-25.6V248.6h155.7
	L209.1,494.9L209.1,494.9z M324.2,231.6H42.7c-14.1,0-25.6-11.5-25.6-25.6v-44c0-14.1,11.5-25.6,25.6-25.6h128v68.4
	c0,4.7,3.8,8.5,8.5,8.5c4.7,0,8.5-3.8,8.5-8.5v-68.4h136.5L324.2,231.6L324.2,231.6z"/>
</svg>
