<?xml version="1.0" encoding="utf-8"?>
<!-- Generator: Adobe Illustrator 24.2.1, SVG Export Plug-In . SVG Version: 6.00 Build 0)  -->
<svg version="1.1" id="Layer_1" xmlns="http://www.w3.org/2000/svg" xmlns:xlink="http://www.w3.org/1999/xlink" x="0px" y="0px"
	 viewBox="0 0 792 506.8" style="enable-background:new 0 0 792 506.8;" xml:space="preserve">
<style type="text/css">
	.st0{fill:url(#Ellipse_13_1_);}
	.st1{fill:#414042;}
	.st2{fill:none;}
</style>
<linearGradient id="Ellipse_13_1_" gradientUnits="userSpaceOnUse" x1="-1.626" y1="653.731" x2="-2.5249" y2="652.6772" gradientTransform="matrix(459 0 0 -460 1441 300758)">
	<stop  offset="0" style="stop-color:#FFC1B1"/>
	<stop  offset="0.178" style="stop-color:#F2EBD7"/>
	<stop  offset="0.421" style="stop-color:#C4F0E8"/>
	<stop  offset="0.605" style="stop-color:#9BC99E"/>
	<stop  offset="1" style="stop-color:#B6916B"/>
</linearGradient>
<ellipse id="Ellipse_13" class="st0" cx="579.2" cy="177.5" rx="134.7" ry="135"/>
<g>
	<g id="logo">
		<g>
			<path class="st1" d="M742.7,217.6c-2.4-1.1-3.5-2.9-3.9-4.7c-1.1,0.1-2.2,0.1-3.3,0.2c0.4,3,2.2,6,5.9,7.6
				c3.8,1.7,4.6,5.4,3.7,8.3c-0.9,2.9-3.7,5.4-7.8,4.5c-5.5-1.2-9.7,2-11.3,5.8c-1.7,3.7-1.3,9,3.3,12.3c3.4,2.5,3.4,6.2,1.9,8.9
				s-4.8,4.5-8.6,2.8c-5.2-2.3-9.9,0-12.3,3.3c-2.4,3.3-3.1,8.5,0.7,12.7c2.8,3.1,2,6.8,0,9.1c-2,2.3-5.6,3.4-9,0.9
				c-4.6-3.3-9.7-2.1-12.7,0.7c-3,2.7-4.8,7.7-2,12.6c2.1,3.6,0.6,7.1-1.9,8.9s-6.2,2.2-9-1c-3.8-4.2-9-4-12.6-2
				c-3.5,2-6.3,6.5-4.5,11.9c1.3,4-0.9,7-3.7,8.3c-2.8,1.2-6.5,0.8-8.6-2.8c-2.8-4.9-8-5.8-11.9-4.6c-3.9,1.3-7.5,5-6.9,10.7
				c0.5,4.2-2.3,6.7-5.3,7.3c-3,0.6-6.5-0.5-7.8-4.5c-1.7-5.4-6.6-7.4-10.7-6.9c-4,0.4-8.4,3.4-9,9c-0.4,4.2-3.7,6.1-6.7,6.1
				s-6.3-1.9-6.7-6.1c-0.6-5.6-4.9-8.6-9-9c-0.3,0-0.7-0.1-1.1-0.1c-3.8,0-8,2.1-9.6,7c-1.3,4-4.9,5.2-7.8,4.5
				c-3-0.6-5.8-3.1-5.3-7.3c0.6-5.6-3-9.4-6.9-10.7c-3.9-1.3-9-0.3-11.9,4.6c-2.1,3.6-5.8,4-8.6,2.8s-5-4.3-3.7-8.3
				c1.8-5.4-1-9.8-4.5-11.9c-3.5-2-8.8-2.2-12.6,2c-2.8,3.1-6.6,2.7-9,1c-2.5-1.8-4-5.2-1.9-8.9c2.8-4.9,1-9.8-2-12.6
				c-3-2.7-8.1-4-12.7-0.7c-3.4,2.5-7,1.3-9-0.9c-2-2.3-2.8-5.9,0-9.1c3.8-4.2,3.1-9.4,0.7-12.7c-2.4-3.3-7.1-5.6-12.3-3.3
				c-3.9,1.7-7.1-0.2-8.6-2.8c-1.5-2.6-1.5-6.4,1.9-8.9c0.2-0.2,0.5-0.4,0.7-0.5c-2,0.4-3.9,0.8-5.7,1.2c-1.9,3.3-1.4,7.1,0.2,9.9
				c2.2,3.8,7.2,6.7,12.9,4.2c3.7-1.6,6.8,0.2,8.2,2.2c1.5,2,2.3,5.5-0.5,8.5c-4.2,4.6-2.9,10.3,0,13.5c2.9,3.3,8.4,5.1,13.5,1.4
				c3.3-2.4,6.6-1.3,8.5,0.4c1.9,1.7,3.4,4.9,1.3,8.4c-3.1,5.4-0.7,10.7,2.8,13.2c3.5,2.6,9.3,3.2,13.5-1.4c2.7-3,6.2-2.6,8.4-1.3
				c2.2,1.3,4.3,4.1,3,8c-1.9,6,1.5,10.6,5.5,12.4s9.7,1.2,12.9-4.2c2-3.5,5.5-3.8,8-3.1c2.4,0.8,5.1,3.1,4.6,7.2
				c-0.7,6.2,3.7,10,7.9,11c4.3,0.9,9.8-0.8,11.7-6.8c1.2-3.9,4.6-4.9,7.1-4.6s5.6,2,6,6c0.6,6.2,5.7,9.1,10,9.1
				c4.4,0,9.4-2.8,10-9.1c0.4-4,3.5-5.8,6-6c2.5-0.3,5.9,0.8,7.2,4.6c1.9,6,7.4,7.7,11.7,6.8c4.3-0.9,8.6-4.7,7.9-11
				c-0.4-4,2.2-6.4,4.6-7.2c2.4-0.8,5.9-0.5,8,3.1c3.1,5.4,8.9,6,12.9,4.2s7.4-6.4,5.5-12.4c-1.3-3.9,0.9-6.7,3-8s5.7-1.7,8.4,1.3
				c4.2,4.6,9.9,4,13.5,1.4c3.5-2.6,5.9-7.8,2.8-13.2c-2-3.5-0.5-6.7,1.3-8.4c1.9-1.7,5.3-2.8,8.5-0.4c5.1,3.7,10.5,1.9,13.5-1.4
				c2.9-3.3,4.2-8.9,0-13.5c-2.7-3-1.9-6.5-0.5-8.5c1.5-2,4.5-3.9,8.2-2.2c5.7,2.6,10.7-0.4,12.9-4.2c2.2-3.8,2.3-9.6-2.8-13.2
				c-3.3-2.4-3.2-5.9-2.2-8.2s3.6-4.7,7.6-3.9c6.1,1.3,10.4-2.6,11.7-6.8C749.5,225.8,748.4,220.1,742.7,217.6z M445.8,102.6
				c-1.4-2.2-1.1-4.9,0-6.9c1.5-2.6,4.8-4.5,8.6-2.8c5.2,2.3,9.9,0,12.3-3.3s3.1-8.5-0.7-12.7c-2.8-3.1-2-6.8,0-9.1
				c2-2.3,5.6-3.4,9-0.9c4.6,3.3,9.7,2.1,12.7-0.7c3-2.7,4.8-7.7,2-12.6c-2.1-3.6-0.6-7.1,1.9-8.9c2.5-1.8,6.2-2.2,9,1
				c3.8,4.2,9,4,12.6,2c3.5-2,6.3-6.5,4.5-11.9c-1.3-4,0.9-7,3.7-8.3c2.8-1.2,6.5-0.8,8.6,2.8c2.8,4.9,8,5.8,11.9,4.6
				c3.9-1.3,7.5-5,6.9-10.7c-0.4-4.2,2.3-6.7,5.3-7.3s6.5,0.5,7.8,4.5c1.7,5.4,6.6,7.4,10.7,6.9s8.4-3.4,9-9
				c0.4-4.2,3.7-6.1,6.7-6.1c1.5,0,3.1,0.5,4.3,1.5s2.2,2.5,2.4,4.6c0.6,5.6,4.9,8.6,9,9c4,0.4,8.9-1.5,10.7-6.9
				c1.3-4,4.9-5.2,7.8-4.5s5.8,3.1,5.3,7.3c-0.6,5.6,3,9.4,6.9,10.7c3.9,1.3,9,0.3,11.9-4.6c2.1-3.6,5.8-4.1,8.6-2.8
				c2.8,1.2,5,4.3,3.7,8.3c-1.8,5.4,1,9.9,4.5,11.9s8.8,2.2,12.6-2c2.8-3.1,6.6-2.7,9-1c2.5,1.8,4,5.2,1.9,8.9
				c-2.8,4.9-1,9.8,2,12.6c3,2.7,8.1,4,12.7,0.7c3.4-2.5,7-1.3,9,0.9c2,2.3,2.8,5.9,0,9.1c-3.8,4.2-3.1,9.4-0.7,12.7
				c2.4,3.3,7.1,5.6,12.3,3.3c3.8-1.7,7.1,0.2,8.6,2.8c1.5,2.6,1.5,6.4-1.9,8.9c-1.2,0.9-2.1,1.9-2.8,2.9c1.7-0.1,3.3-0.3,4.9-0.4
				c4.9-3.7,4.8-9.3,2.6-13.1c-2.2-3.8-7.2-6.7-12.9-4.2c-3.7,1.7-6.7-0.2-8.2-2.2s-2.3-5.5,0.5-8.5c4.2-4.7,2.9-10.3,0-13.5
				c-2.9-3.3-8.4-5.1-13.5-1.4c-3.3,2.4-6.6,1.3-8.5-0.4c-1.9-1.7-3.3-4.9-1.3-8.4c3.1-5.4,0.7-10.7-2.8-13.2
				c-3.5-2.6-9.3-3.2-13.5,1.4c-2.7,3-6.2,2.6-8.4,1.3s-4.3-4.1-3-8c1.9-6-1.5-10.6-5.5-12.4s-9.7-1.2-12.9,4.2
				c-2,3.5-5.5,3.8-8,3.1c-2.4-0.8-5.1-3.1-4.6-7.1c0.7-6.2-3.7-10-7.9-10.9c-4.3-0.9-9.8,0.8-11.7,6.8c-1.2,3.9-4.6,4.9-7.2,4.6
				c-1.3-0.1-2.7-0.6-3.8-1.6s-2-2.4-2.2-4.4c-0.6-6.2-5.7-9.1-10-9.1s-9.4,2.8-10,9.1c-0.4,4-3.5,5.8-6,6c-2.5,0.3-5.9-0.8-7.1-4.6
				c-1.9-6-7.4-7.7-11.7-6.8s-8.6,4.7-7.9,10.9c0.4,4-2.2,6.4-4.6,7.1c-2.4,0.8-5.9,0.4-8-3.1c-3.1-5.4-8.9-6-12.9-4.2
				s-7.4,6.4-5.5,12.4c1.3,3.8-0.9,6.7-3,8c-2.2,1.3-5.7,1.7-8.4-1.3c-4.2-4.7-9.9-4-13.5-1.4c-3.5,2.6-5.9,7.8-2.8,13.2
				c2,3.5,0.5,6.7-1.3,8.4c-1.9,1.7-5.3,2.8-8.5,0.4c-5-3.7-10.5-1.8-13.5,1.4c-2.9,3.3-4.2,8.9,0,13.5c2.7,3,1.9,6.5,0.5,8.5
				s-4.5,3.8-8.2,2.2c-5.7-2.6-10.7,0.4-12.9,4.2c-1.4,2.4-1.9,5.6-0.8,8.5C443.3,102.6,444.5,102.6,445.8,102.6z"/>
		</g>
		<g>
			<path class="st1" d="M716.5,214.3c-15.9,55.8-67.3,96.7-128.1,96.7c-48.3,0-90.7-25.9-114-64.4c-1.2,0.2-2.4,0.3-3.6,0.5
				c23.8,40.2,67.6,67.3,117.6,67.3c62.8,0,115.8-42.6,131.6-100.4C718.8,214.1,717.7,214.2,716.5,214.3z M588.4,44.8
				c48.2,0,90.5,25.8,113.9,64.3c1.3-0.1,2.5-0.2,3.8-0.2c-23.8-40.3-67.6-67.4-117.6-67.4c-47.7,0-89.8,24.6-114.2,61.9
				c1.3,0.1,2.6,0.1,3.9,0.2C502,68.2,542.5,44.8,588.4,44.8z"/>
		</g>
		<g>
			<path d="M441.7,185c-2.6,0.7-6.1,1.1-9.2,1.1c-4.8-2.4-5.3-10.3-4.6-16.4l7.9-2.6c8.8-2.9,14.5-5.3,24.3-12.5
				c7.4-7,11.4-10.9,12.3-18.6c0.7-4.2-1.8-6.6-6.1-6.6c-6.1,0-16.6,5.3-26.3,16.2c-4.8-2.9-9.6-7.2-9.2-12.5
				c0.4-5.7,28.5-25.8,45.8-25.8c15.1,0,24.7,9.6,24.7,19.7c0,11.4-6.1,24.7-33.5,40.3c11.2,3.5,22.1,16.6,22.3,32.2
				c0,22.3-33.5,43.3-55.4,43.3c-17.1,0-25.4-14.4-25-20.4c0.4-8.1,5.9-12.9,15.3-12.9c3.1,0,6.4,0.7,10.1,2v2.2
				c0,6.4-0.2,12.9,3.7,12.9c13.8,0,23.2-12,24.3-24.9c0.4-6.1-3.1-17.7-11.6-17.7C449.4,183.9,445.2,184.5,441.7,185z"/>
		</g>
		<g>
			<g>
				<path d="M563.2,136.4c-8.7-0.3-25.2,0.1-25,12.4c0,2.7,2.4,5.3,5.3,5.6c5.5,0.7,10.2-4.8,10.4-10.2c4.3,1.5,7.5,5.6,7.2,10.5
					c-0.3,6.3-7.9,10.2-13.8,9.5c-10.4-1.3-21.3-12.5-21.8-23.5c-0.9-18.4,26.9-16.9,38.5-16.6c16.8,0.5,33.2,2.1,49.8-0.3
					c6.5-0.9,13.3-4.6,18.6-6.5c0.5-0.2,1.1-0.1,1.1,0.2c-0.1,8.9-8.1,18.6-16.7,20c-6.1,0.9-12.3,1.3-18.6,1.4
					c-10.4,10.1-14.5,25.1-18.6,38.5c-5.4,17.5-13.4,47.9-37.8,43.9c-12.7-2.1-28.5-16.7-29.1-29.8c-0.5-10.8,8-18,18.6-15.4
					c5.5,1.3,10.3,5.4,11.4,11.1c-7.6-1.2-17.6,2.9-15.6,12.3c1.1,5.2,4.9,10.2,10.4,11.1c14.8,2.5,20.2-25.8,23.8-35.3
					c5.4-14.5,13.6-29.7,28.4-36.6C580.9,138.1,572.1,136.8,563.2,136.4z"/>
				<path d="M613.9,207.4c-3.8,5.4-9.3,13.4-15.3,14.7c-8.3,1.8-12.7-10.6-12.7-17.9c0.1-16.4,13-42.2,30.8-45.3
					c5.1-0.9,8.9,2.2,10.3,7.1c1.1-3,1.6-4.6,2.6-7.6c0.8-0.4,1.3-0.6,12.2-2.7c1.3-0.2,2.3,1,2.1,2.2c-1.8,11.9-14.4,27.4-15,41.2
					c-0.1,2.3,1.8,2.9,3.6,2.5c5-1.1,9.1-4.9,13.1-8.3c1.4,0,2.2,1.7,2.2,3.3c0,1-0.3,2.1-0.8,3.1c-4.7,7-12.6,15.6-20.9,17.1
					C620.4,217.9,615.6,212.6,613.9,207.4z M603.3,209.4c11.6-2,19.3-26.5,19.6-36.7c0-1.8-1.3-4.1-3.6-3.4
					c-10.8,3-18.9,23.8-19.1,35C600.2,207.8,601.4,209.7,603.3,209.4z"/>
				<path d="M658.8,198.2c0.3-10.7,9.6-24.1,15.9-33.7c-2.5,1-9.3,2.4-11.1,2.8c-4,11.9-9.3,23.7-17.3,33.4
					c-2.1,2.4-6.1-1.6-5.8-2.6c2.2-9.2,11.5-20.6,15.4-32.6c-0.4-0.8-1.5-2.4-1.5-6.1c0-7.6,5.8-16.8,13.1-18.5c3.1-0.7,5,0.7,5,3.6
					c0,2.5-1.3,2.9-1.3,5.2c0,2.6,2.5,4.2,5.6,3.7c4.3-0.7,6.5-2.1,9-6.9c1.3-0.2,2.6-0.4,3.9-0.5c2.4-0.3,5.7,1.6,5.4,4.4
					c-1.5,13-19.3,25-19.6,40.2c0,1.8,0.7,3.3,2,3c5.3-1.3,11-5,16.1-8.1c1.4,0.1,2.2,1.8,2.2,3.5c0,1.3-0.3,2.3-0.8,3
					c-5.6,7-15.4,14.6-24.5,16.2C664.7,209.1,658.7,203.6,658.8,198.2z"/>
				<path d="M703.5,158c-1.1,0.1-3.3-1-3.3-3.2c0-2.9,1-5,2-7c2.1-0.3,5.4-0.7,9.2-1.3c5.5-11,11.2-21.9,16.4-33
					c2.6-0.1,7-0.7,10.2-0.4c3.2,0.3,5.4,2.4,5,4.1c-1.9,8-11,18.6-16.3,28c0.8,0,1.8,0.1,2.5,0.1c4.3,0.2,6.7,1.3,6.7,3
					s-0.9,5.3-1.4,5.6c-1.2,0.8-8.1,0.8-13.5,1.6c-4.8,9.6-12.2,21.5-12.5,32.3c0,1.9,1.1,3.8,5.8,3.3c5.5-0.6,11-4.5,16.1-7.4
					c1.4,0.3,2.2,2.2,2.2,3.9c0,1.3-0.3,2.2-1,3c-7,7.5-17.3,13.7-27.5,14.7c-6.2,0.6-12.3-5.9-12.2-11.1c0.2-11.3,8.9-25.1,14-36.4
					C704.9,157.9,704.2,158,703.5,158z"/>
				<path d="M778.3,197.1c0,1.3-0.4,1.9-1,2.7c-7.8,5.9-18.8,6.9-28.1,5.7c-11-1.5-21.1-11.5-21.6-22.8c-0.2-4.9,2.7-10.2,8.1-10.4
					c4.4-6.3,19.8-35.4,29.2-33.9c2.5,0.4,4.7,3.1,4.7,5.4c0,3.5-5.9,4.4-5.6,12.6c0.3,8.6,4,17.8,4.3,26.6
					c0.2,4.6-0.8,9.3-3.5,13.5c2.6-0.7,9.3-3.9,11.1-4.2C777.5,192.9,778.3,195.4,778.3,197.1z M743.4,177.1c1,0.5,2.2,2.9,2.2,5.6
					c0,3.3-3.2,5.7-4.9,6.1c0.7,0.9,3.2,2.6,4.9,2.8c7.5,0.8,11-8.2,10.8-14.6c-0.1-5.6-0.3-11.4-0.8-17
					C752,166,747.8,171.7,743.4,177.1z"/>
			</g>
		</g>
		<g>
			<g>
				<path d="M592.7,239.9c0.1,1.7-1.1,3.4-1.5,3.8c-0.6,0.1-0.8,0.1-1.8,0c-1.1-0.1-2.3-0.4-2.3-1.1c0-0.9,1.5-3,1.5-3.7
					s-0.6-1.1-1.3-1.1c-1.8-0.1-4.8,1.9-4.7,4.8c0.1,1.3,0.3,2.5,4.2,3c0.6,0.1,1,0.5,1,0.9c0,0.5-0.5,1.8-0.6,2
					c-0.9-0.1-3.1-0.5-4.6-0.3c-3.4,0.4-7.3,2.3-7.1,6.1c0.1,2.1,1.4,4.6,4,5c2.9,0.4,6.2-3,6.1-4.9c0-0.6-0.8-1.3-1.3-1.3
					c-1.5-0.1-2.9,0.7-3.9,3.6c-1-0.2-2.3-1.6-2.3-2.4c-0.1-2,3.3-3.7,6.5-3.5c1.8,0.1,4.7,2.5,4.8,4.4c0.2,3.5-5.2,7.7-9.4,7.2
					c-3.7-0.5-8.9-6.3-9-9.4c-0.2-5.4,6.1-7.6,10.7-7.2c-3.2-1.7-3.9-3.1-4-5c-0.2-3.6,3.8-6.2,8.4-6
					C588.9,234.9,592.6,237.9,592.7,239.9z"/>
				<path d="M604.3,257.2c0,0.4-0.1,0.6-0.2,0.9c-0.1,0.2-2.9,4-7.6,4.3c-4.1,0.2-6.2-3.7-6.3-5.7s1.1-2.9,2.1-3
					c5-8.2,6.3-11.1,7.6-11.2c0.8-0.1,1.3,0.3,1.4,1c0,1-1.5,1.7-1.3,4.1c0.1,1.6,1.4,4.1,1.5,6.9c0.1,1.3-0.1,2.7-0.8,4.1
					c0.7-0.5,2.5-2.1,3-2.5C604,256.1,604.3,256.7,604.3,257.2z M594.5,254.8c0.3,0.1,0.7,0.7,0.7,1.4c0,0.9-0.8,1.7-1.3,1.9
					c0.2,0.2,0.9,0.6,1.4,0.6c2.1-0.1,2.9-2.8,2.8-4.7c-0.1-1.9-0.3-4-0.5-4.6C597,250.8,595.3,253.6,594.5,254.8z"/>
				<path d="M605.9,248.6c-0.3,0-0.9-0.2-1-0.9c0-0.8,0.2-1.4,0.5-2c0.6-0.1,1.5-0.3,2.5-0.5c1.7-4.1,3.4-8,4.1-9.8
					c0.7-0.2,1.9-0.6,2.8-0.8c0.9-0.2,1.4,0.1,1.4,0.8c0,0.2-2,4.3-4.1,8.9c0.2,0,0.5-0.1,0.7-0.1c1.2-0.2,1.8-0.1,1.9,0.4
					c0,0.5-0.2,1.5-0.3,1.6c-0.3,0.3-2.2,0.7-3.7,1.2c-1.7,3.9-3.1,7.7-3,9.3c0,0.5,0.2,1,1.7,0.8c1.3-0.2,3.9-2.4,4.3-2.8
					c0.4,0,0.6,0.5,0.7,0.9c0,0.4,0,0.6-0.2,0.9c-0.3,0.5-3.6,4.6-7.4,5.1c-2,0.3-3.5-1.7-3.5-3c-0.1-1.3,1.5-5.6,3.4-10.2
					C606.2,248.6,606,248.6,605.9,248.6z"/>
				<path d="M621.1,255.3c0,1.1-1,3.9-3,4.3c-1.3,0.3-2.2-0.3-2.2-1.5c-0.1-1.9,1.5-4.2,2.9-4.5S621,254.2,621.1,255.3z"/>
				<path d="M630.8,240.5c0.2-0.7,0.8-1.8,1-1.9c2.8-1.2,4.1-2.1,6.2-3.9c1-0.6,2.3-0.6,2.4,0.1c0,0.3-0.4,1.2-1,2.8
					c-2,5-3.7,10-5.4,15.1c-0.6,1.9-1.3,5.3-1.8,5.7c-1.6-0.4-3.9-1.5-3.8-2.3c0.6-5,3.8-11.3,6.6-16.3c-1.4,1-2.6,1.7-3.3,1.9
					C631,241.9,630.6,241.2,630.8,240.5z"/>
				<path d="M649.3,245.9c-1.3,1-3,2.2-3.9,2.4c-2.2,0.4-4.9-0.5-5-3.6c-0.2-5.2,3-11,8.3-11.9c3.2-0.6,6.1,0.7,6.3,5.8
					c0.3,7.4-5.1,14.1-10.4,18.9c-0.3,0.2-0.9,0.3-1.8,0.5c-1.2,0.2-2.1-0.4-2.1-1.3C645.3,252.1,648,248.9,649.3,245.9z
					 M650.3,243.1c0.7-1.1,0.6-3.5,0.5-4.7c-0.1-2.2-0.9-3.1-2.1-2.9c-2.5,0.4-3.9,4.9-3.8,7.3c0.1,1.4,1,2,2.5,1.8
					C648.2,244.5,649.8,243.9,650.3,243.1z"/>
				<path d="M665.5,244.3c-1.3,0.9-3,1.8-3.9,1.9c-2.2,0.1-4.9-0.9-5-4.1c-0.2-5,3-10.7,8.3-11c3.3-0.2,6.1,1.5,6.3,6.6
					c0.3,7.1-5.2,13.3-10.5,17.4c-0.3,0.1-0.9,0.2-1.8,0.3c-1.2,0.1-2.1-0.6-2.1-1.5C661.5,250,664.1,247.1,665.5,244.3z
					 M666.5,241.7c0.7-1,0.6-3.4,0.5-4.6c-0.1-2.2-0.9-3.2-2.1-3.2c-2.5,0.1-4,4.4-3.8,6.8c0.1,1.4,1,2.1,2.5,2.1
					C664.4,242.8,666,242.4,666.5,241.7z"/>
				<path d="M679.8,238.9c1.2-0.1,2.4-0.1,3,0c2.3,0.4,4.3,2.4,4.4,4.9c0.3,6-4.3,9.4-8.7,8.9c-2.5-0.3-6.1-3.4-6.1-7
					c0-6.4,5.6-12.9,11.4-15.9c0.3,0,0.9,0.1,1.8,0.3c1.2,0.3,2.2,1.3,2.2,2.1C684.1,234.1,681.5,236.6,679.8,238.9z M678.2,241.2
					c-1.2,2.3-1.7,4.4-1.6,5.8c0.1,1.2,0.8,2.4,2,2.6c1.8,0.2,4.3-2.3,4.1-5.6c-0.1-1.3-1.3-2.5-3.2-2.8
					C679.2,241.2,678.7,241.2,678.2,241.2z"/>
			</g>
		</g>
	</g>
	<g id="truck">
		<path class="st2" d="M609.8,350c-1.2,0-2.4,0.1-3.7,0.1c-95.7,0-175.5-69.5-191.5-160.7c-2.4-12.4-3.7-25.3-3.7-38.4
			c0-14.4,1.5-28.3,4.4-41.8H278c-7.1,0-12.9,5.8-12.9,12.9v286.4h-22.3V181.8h-85.7c-11.2,0-20.9,8-22.9,19.1l-0.1,0.2l-30.8,123.8
			l-2.6,0.2c-29.8,2.4-53.1,27.7-53.1,57.6v67.2H29.3v25.4h18.4v12.9h42.5c1.9-35.4,31.3-63.6,67.2-63.6s65.3,28.2,67.2,63.6H473
			c1.9-35.4,31.3-63.6,67.2-63.6s65.3,28.2,67.2,63.6h99.3v-12.9H722v-25.4h-15.3v-125C678,340.9,645,350,609.9,350
			C610,350,609.9,350,609.8,350z M227.1,300H122.3l18.4-88.9h86.4V300z"/>
		<polygon class="st2" points="219.7,292.6 219.7,218.5 146.7,218.5 131.4,292.6 		"/>
		<path d="M122.3,300h104.8v-88.9h-86.4L122.3,300z M219.7,218.5v74.1h-88.3l15.3-74.1H219.7L219.7,218.5z"/>
		<path d="M706.8,324.9v125h15.3v25.4h-15.3v12.9h-99.3c-1.9-35.4-31.3-63.6-67.2-63.6s-65.3,28.2-67.2,63.6H224.7
			c-1.9-35.4-31.3-63.6-67.2-63.6s-65.3,28.2-67.2,63.6H47.7v-12.9H29.3v-25.4h18.4v-67.2c0-29.9,23.3-55.2,53.1-57.6l2.6-0.2
			l30.8-123.8l0.1-0.2c2-11.1,11.6-19.1,22.9-19.1h85.7v226.6h22.3V122c0-7.1,5.8-12.9,12.9-12.9h137.4c0.5-2.5,1.1-4.9,1.7-7.4H278
			c-11.2,0-20.3,9.1-20.3,20.3v279h-7.5V174.4h-93.1c-14.8,0-27.4,10.5-30.1,25L97.5,318c-15.3,1.9-29.3,9-39.9,20.4
			c-11.2,12.1-17.4,27.8-17.4,44.3v59.9H21.9v40.1h18.4v12.9h57.2v-3.7c0-33,26.9-60,60-60s59.9,26.9,59.9,60v3.7h263v-3.7
			c0-33,26.9-60,59.9-60s60,26.9,60,60v3.7h113.9v-12.9h15.3v-40.2h-15.3V320.6C711.8,322.1,709.3,323.5,706.8,324.9z"/>
	</g>
</g>
</svg>
