<?xml version="1.0" encoding="utf-8"?>
<!-- Generator: Adobe Illustrator 22.0.0, SVG Export Plug-In . SVG Version: 6.00 Build 0)  -->
<svg version="1.1" id="Layer_1" xmlns="http://www.w3.org/2000/svg" xmlns:xlink="http://www.w3.org/1999/xlink" x="0px" y="0px"
	 viewBox="0 0 100 100" style="enable-background:new 0 0 100 100;" xml:space="preserve">
<style type="text/css">
	.st0{fill:#FFFFFF;}
</style>
<g>
	<circle class="st0" cx="50" cy="50" r="50"/>
</g>
<g>
	<path d="M16.1,53.2c-0.3,0.4-0.8,0.6-1.3,0.7c-0.6,0-1-0.1-1.4-0.5s-0.6-0.8-0.7-1.3c0-0.6,0.1-1,0.5-1.4c0.3-0.4,0.8-0.6,1.4-0.7
		c0.5,0,1,0.1,1.4,0.5c0.4,0.4,0.6,0.8,0.7,1.4C16.6,52.3,16.4,52.8,16.1,53.2z"/>
	<path d="M12.7,30.6l9.1,7.7l-0.6,1.6L9.4,40.2l0.5-1.5l10.2-0.1l-7.9-6.5L12.7,30.6z"/>
	<path d="M15.7,26.1l9.4,6.1l-0.8,1.2l-9.4-6.1L15.7,26.1z"/>
	<path d="M20.3,22.2l2.7,2.6l2.8-2.9l0.9,0.8l-2.8,2.9l2.8,2.7l3.2-3.3l0.9,0.8l-4.2,4.3l-8-7.8l4.2-4.3l0.9,0.8L20.3,22.2z"/>
	<path d="M39.7,8.5L41.4,20l-1.5,0.7l-6.1-7.1l1.3,9.3l-1.5,0.7l-7.5-8.9l1.4-0.6l6.1,7.6l-1.5-9.7l1.5-0.7l6.2,7.5l-1.7-9.6
		L39.7,8.5z"/>
	<path d="M62.8,9.5l-1.9,10.9l-1.4-0.3l1.4-8.1l-5.1,7.5l-1-0.2l-2.2-8.8l-1.4,8.1l-1.4-0.3l1.9-10.9l1.5,0.3l2.4,9.7l5.6-8.3
		L62.8,9.5z"/>
	<path d="M64.7,22c-0.4-0.9-0.6-1.8-0.6-2.8c0.1-1,0.4-2,1-2.9c0.6-0.9,1.3-1.6,2.2-2c0.9-0.5,1.8-0.6,2.8-0.6c1,0.1,1.9,0.4,2.8,1
		c0.9,0.6,1.5,1.3,2,2.2s0.6,1.8,0.6,2.8s-0.4,1.9-1,2.9c-0.6,0.9-1.4,1.6-2.2,2c-0.9,0.4-1.8,0.6-2.8,0.6c-1-0.1-1.9-0.4-2.8-1
		C65.8,23.6,65.1,22.8,64.7,22z M69.4,23.8c0.7,0,1.4-0.1,2.1-0.5c0.7-0.4,1.3-0.9,1.7-1.7c0.5-0.7,0.8-1.5,0.8-2.3
		c0.1-0.8-0.1-1.5-0.4-2.1c-0.3-0.6-0.8-1.2-1.5-1.6c-0.7-0.4-1.3-0.7-2.1-0.7c-0.7,0-1.4,0.1-2.1,0.5c-0.7,0.4-1.2,0.9-1.7,1.7
		c-0.5,0.7-0.8,1.5-0.8,2.2c-0.1,0.8,0.1,1.5,0.4,2.1c0.3,0.6,0.8,1.2,1.5,1.6C68,23.5,68.7,23.7,69.4,23.8z"/>
	<path d="M75.6,33.1l2.1-4.8l-1-1.4L73,29.5l-0.9-1.2l9-6.6l2.1,2.9c0.5,0.7,0.8,1.3,0.9,2c0.1,0.6,0.1,1.2-0.2,1.7
		c-0.2,0.5-0.6,1-1.1,1.3c-0.6,0.5-1.3,0.7-2,0.7c-0.7,0-1.4-0.3-2.1-0.9l-2.1,5L75.6,33.1z M77.6,26.1l1.3,1.7c0.5,0.6,1,1,1.5,1.1
		c0.5,0.1,1.1-0.1,1.6-0.4c0.5-0.4,0.8-0.9,0.9-1.4c0.1-0.5-0.1-1.1-0.6-1.8L81,23.6L77.6,26.1z"/>
	<path d="M87.2,34.1l-3.5,1.3l1.4,3.8L84,39.6l-1.4-3.8L79,37.1l1.6,4.3l-1.1,0.4l-2.1-5.6l10.5-3.8l2.1,5.6l-1.1,0.4L87.2,34.1z"/>
	<path d="M84.1,48.7c0.4-0.4,0.9-0.5,1.4-0.5c0.6,0,1,0.2,1.4,0.6c0.4,0.4,0.5,0.9,0.5,1.4c0,0.6-0.2,1-0.6,1.4
		c-0.4,0.4-0.9,0.6-1.4,0.5c-0.5,0-1-0.2-1.4-0.6c-0.4-0.4-0.5-0.9-0.5-1.4C83.5,49.6,83.7,49.1,84.1,48.7z"/>
</g>
<g>
	<path d="M21.3,71.9c-0.1,0.5-0.2,0.9-0.5,1.3c-0.3,0.4-0.6,0.8-1,1c-0.5,0.3-1.1,0.5-1.7,0.5c-0.6,0-1.2-0.2-1.7-0.5
		s-1.1-0.9-1.5-1.6l-2.4-3.9l10.4-6.5l2.3,3.7c0.4,0.7,0.7,1.4,0.8,2c0.1,0.6,0,1.2-0.2,1.7c-0.2,0.5-0.6,0.9-1.1,1.2
		c-0.6,0.4-1.2,0.5-1.8,0.5c-0.6-0.1-1.2-0.3-1.7-0.8C21.3,71,21.3,71.5,21.3,71.9z M17.4,73.1c0.6,0.2,1.1,0.1,1.7-0.3
		c0.6-0.4,0.9-0.8,1-1.4c0.1-0.6-0.1-1.2-0.5-1.9l-1.5-2.3l-3.7,2.3l1.5,2.4C16.4,72.5,16.9,72.9,17.4,73.1z M19.2,66.4l1.4,2.3
		c0.4,0.6,0.9,1,1.4,1.2c0.5,0.2,1,0.1,1.6-0.3s0.8-0.8,0.9-1.3c0.1-0.5-0.1-1.1-0.5-1.8l-1.4-2.2L19.2,66.4z"/>
	<path d="M28.8,72.4l-2.7,3.1l3.4,2.9l-0.9,1l-3.4-2.9l-2.7,3.2l3.8,3.2l-0.9,1l-5-4.3l8-9.3l5,4.3l-0.9,1L28.8,72.4z"/>
	<path d="M43.3,79.1l-4.6,11.3l-1.5-0.6l2.1-5.1l-5.8-2.3l-2.1,5.1L30,87l4.6-11.3l1.5,0.6l-2,5l5.8,2.3l2-5L43.3,79.1z"/>
	<path d="M52.1,89.1L46.7,89l-1,2.7l-1.7,0l4.7-12.1l1.8,0l4.1,12.3l-1.7,0L52.1,89.1z M51.6,87.8l-2.1-6.2l-2.3,6.1L51.6,87.8z"/>
	<path d="M68.8,87.6l-1.5,0.5L58,81.2l3.3,9.2l-1.5,0.5l-4.2-11.5l1.5-0.5l9.4,6.9l-3.3-9.1l1.5-0.5L68.8,87.6z"/>
	<path d="M68.1,77.4c-0.2-1.1-0.2-2.1,0.1-3.1c0.3-1,0.9-1.9,1.7-2.7c1-0.9,2.1-1.5,3.2-1.7c1.2-0.2,2.3,0,3.5,0.5l-1.4,1.3
		c-0.7-0.3-1.5-0.4-2.2-0.3c-0.7,0.1-1.4,0.5-2.1,1.1c-0.6,0.6-1.1,1.2-1.3,2c-0.2,0.8-0.2,1.5,0,2.3c0.2,0.8,0.6,1.6,1.3,2.3
		c0.7,0.7,1.4,1.2,2.2,1.5c0.8,0.3,1.6,0.3,2.3,0.2c0.8-0.2,1.5-0.5,2.1-1.1c0.7-0.6,1.1-1.3,1.3-2c0.2-0.7,0.2-1.5-0.1-2.2l1.4-1.3
		c0.5,1.2,0.5,2.3,0.2,3.5c-0.3,1.1-0.9,2.2-1.9,3.1c-0.8,0.8-1.8,1.3-2.8,1.5c-1,0.2-2.1,0.2-3.1-0.1c-1-0.3-2-0.9-2.8-1.8
		C68.9,79.4,68.3,78.4,68.1,77.4z"/>
	<path d="M76.6,65.7l3.6,1.9l2.1-3.9l1.2,0.6l-2.1,3.9l3.7,2l2.3-4.4l1.2,0.6l-3.1,5.8l-10.8-5.7l3.1-5.8l1.2,0.6L76.6,65.7z"/>
</g>
</svg>
