<?xml version="1.0" encoding="utf-8"?>
<!-- Generator: Adobe Illustrator 24.2.2, SVG Export Plug-In . SVG Version: 6.00 Build 0)  -->
<svg version="1.1" id="Layer_1" xmlns="http://www.w3.org/2000/svg" xmlns:xlink="http://www.w3.org/1999/xlink" x="0px" y="0px"
	 viewBox="0 0 800 800" style="enable-background:new 0 0 800 800;" xml:space="preserve">
<style type="text/css">
	.st0{fill:#F5F5F5;}
	.st1{fill:#EF3C40;}
	.st2{fill:#0067A5;}
</style>
<g>
	<path class="st0" d="M506,638.8v67.5H44V93.7h30.5v545.2H506z"/>
	<path class="st0" d="M343.4,93.7L234.5,337.6c-1.9,4.1-6,6.8-10.5,6.8c-4.6,0-8.7-2.7-10.5-6.9L105.2,93.7H74.7l133.9,320.6
		l-47.1,98.3h40.1L376.3,93.7H343.4z"/>
	<path class="st1" d="M224,344.4c4.6,0,8.7-2.7,10.5-6.8L343.4,93.7H105.2l108.3,243.9C215.3,341.7,219.4,344.4,224,344.4z"/>
	<path class="st0" d="M754.1,638.8v67.5H402.9V93.7h30.5v545.2H754.1z"/>
	<path class="st0" d="M756,479.4c0-92.2-69.4-160.4-161-160.4c-92.2,0-161.6,68.8-161.6,159.8S502.9,638.6,595,638.6
		c71.2,0,128.7-37.1,154.4-93.4h-34.7c-23.3,29.3-67.6,48.5-119.1,48.5c-70,0-123.3-40.7-132.3-97.5h292.1
		C756,490.8,756,484.8,756,479.4z M463.4,460.9c9.6-56.9,62.8-97,131.7-97c68.2,0,122.7,40.1,131.7,97H463.4z"/>
	<path class="st2" d="M595,363.9c-68.8,0-122.1,40.1-131.7,97h263.3C717.7,404,663.2,363.9,595,363.9z"/>
</g>
</svg>
