<?xml version="1.0" encoding="utf-8"?>
<!-- Generator: Adobe Illustrator 24.2.3, SVG Export Plug-In . SVG Version: 6.00 Build 0)  -->
<svg version="1.1" id="Layer_1" xmlns="http://www.w3.org/2000/svg" xmlns:xlink="http://www.w3.org/1999/xlink" x="0px" y="0px"
	 viewBox="0 0 538 538" style="enable-background:new 0 0 538 538;" xml:space="preserve">
<style type="text/css">
	.st0{fill:#0067A5;}
</style>
<g>
	<path class="st0" d="M217.11,41.67l2.69,9.46l-2.28,0.65l8.16,28.69c1.48,5.22-1.63,10.8-6.74,12.25l-2.5,0.71
		c-5.43,1.55-10.8-1.63-12.29-6.84L187.83,29.2c-1.51-5.33,1.41-10.74,6.84-12.29l2.5-0.71c5.11-1.45,10.66,1.55,12.18,6.88
		l4.08,14.35l-9.46,2.69l-4.08-14.35l-2.5,0.71l16.32,57.39l2.5-0.71L205.37,45L217.11,41.67z"/>
	<path class="st0" d="M247.05,26.86c0.75,5.49-3.12,10.58-8.38,11.29l-2.71-19.82l-2.57,0.35l2.71,19.82l2.57-0.35
		c5.26-0.72,10.34,3.04,11.07,8.41l5.38,39.41l-9.74,1.33L240,47.89l-2.58,0.35l5.38,39.41l-9.96,1.36l-10.76-78.82l12.54-1.71
		c5.26-0.72,10.34,3.04,11.09,8.52L247.05,26.86z"/>
	<path class="st0" d="M268.62,6.23c5.42-0.09,10.01,4.02,10.1,9.78l1.13,69.6l-9.94,0.16L269.27,46l-2.49,0.04l0.64,39.77
		l-9.94,0.16l-1.13-69.6c-0.09-5.76,4.13-10.01,9.78-10.1L268.62,6.23z M268.78,16.17l-2.49,0.04l0.32,19.89l2.49-0.04L268.78,16.17
		z"/>
	<path class="st0" d="M305.11,8.71c5.27,0.7,9.17,5.66,8.44,11.15l-2.63,19.83c-0.71,5.38-5.77,9.15-11.04,8.46l-2.58-0.34
		l-5.22,39.43l-9.97-1.32l10.44-78.87L305.11,8.71z M298.6,38.05l2.58,0.34l2.63-19.83l-2.58-0.34L298.6,38.05z"/>
	<path class="st0" d="M349.23,18.49l-20.99,76.73l-9.48-2.59l10.5-38.37l-2.51-0.69l-10.5,38.37l-9.59-2.62l20.99-76.73l9.59,2.62
		l-7.9,28.88l2.51,0.69l7.9-28.88L349.23,18.49z"/>
	<path class="st0" d="M340.14,100.05l-9.26-3.61l28.92-74.11l9.26,3.61L340.14,100.05z"/>
	<path class="st0" d="M379.21,58.12l6.84-13.25l-2.31-1.19l-27.37,53.02l2.31,1.19l11.46-22.19l8.74,4.51l-11.46,22.19
		c-2.49,4.82-8.48,6.82-13.3,4.33l-2.31-1.19c-4.92-2.54-6.76-8.58-4.28-13.4l27.37-53.02c2.54-4.92,8.48-6.81,13.4-4.28l2.31,1.19
		c4.82,2.49,6.71,8.43,4.17,13.35l-6.84,13.26L379.21,58.12z"/>
	<path class="st0" d="M439.14,68.77c4.06,3.42,4.69,9.7,1.12,13.94l-38.41,45.66c-3.49,4.15-9.86,4.7-13.92,1.28l-9.68-8.15
		l51.21-60.88L439.14,68.77z M392.26,120.29l2.08,1.75l38.41-45.66l-2.08-1.75L392.26,120.29z"/>
	<path class="st0" d="M426.57,110.83c4.02-3.65,10.24-3.35,13.96,0.75l8.43,9.29l-7.28,6.61l-8.43-9.29l-22.09,20.05l1.82,2.01
		l18.49-16.79l6.61,7.28l-18.49,16.79c-4.02,3.65-10.4,3.34-13.97-0.59l-1.82-2.01c-3.72-4.1-3.34-10.4,0.68-14.05L426.57,110.83z
		 M446.12,110.18l11.04-10.03l-1.82-2.01l-14.81,13.44c-3.72-4.1-3.34-10.4,0.76-14.12l7.36-6.68c4.1-3.72,10.33-3.42,14.05,0.68
		l1.82,2.01c3.57,3.93,3.35,10.24-0.75,13.96l-11.04,10.03L446.12,110.18z"/>
	<path class="st0" d="M465.82,135.33l12.29-8.46l-1.47-2.14l-16.47,11.34l7.05,10.24l-32.67,22.49c-4.47,3.08-10.75,1.92-13.77-2.46
		l-1.47-2.14c-3.14-4.56-1.92-10.75,2.55-13.83l20.57-14.16l5.64,8.19l-20.57,14.16l1.47,2.14l24.57-16.92l-7.11-10.33L471,116.54
		c4.56-3.14,10.69-2.01,13.83,2.55l1.47,2.14c3.01,4.38,1.95,10.6-2.62,13.74l-12.29,8.46L465.82,135.33z"/>
	<path class="st0" d="M432.35,185.81l-4.76-8.73l69.86-38.06l4.76,8.73L432.35,185.81z"/>
	<path class="st0" d="M489.22,192.32l-9.1,3.72l-0.9-2.2l-27.61,11.3c-5.02,2.05-10.92-0.42-12.93-5.33l-0.98-2.41
		c-2.14-5.23,0.42-10.92,5.44-12.97l55.22-22.6c5.12-2.1,10.83,0.21,12.97,5.44l0.98,2.41c2.01,4.92-0.36,10.77-5.48,12.87
		l-13.81,5.65l-3.72-9.1l13.81-5.65l-0.98-2.41l-55.22,22.6l0.98,2.41l36.71-15.02L489.22,192.32z"/>
	<path class="st0" d="M524.15,206.05c1.3,5.15-1.87,10.61-7.24,11.96l-67.5,17l-2.4-9.53l67.5-17l-0.66-2.63l-67.5,17l-2.43-9.64
		l77.14-19.43L524.15,206.05z"/>
	<path class="st0" d="M492.03,261.7l-0.54-9.93l9.93-0.54l0.54,9.93L492.03,261.7z"/>
	<path class="st0" d="M527.81,315.88l-68.96-9.42c-5.37-0.73-9.24-5.82-8.52-11.09l0.35-2.58c0.75-5.49,5.82-9.24,11.2-8.51
		l68.96,9.42l-1.35,9.85l-68.96-9.42l-0.35,2.58l68.96,9.42L527.81,315.88z"/>
	<path class="st0" d="M495.24,343.55c-5.33-1.48-8.37-7.02-6.95-12.13c-1.42,5.12-6.88,8.29-12.1,6.84l-33.64-9.35l2.63-9.47
		l33.64,9.34l0.7-2.5l-33.64-9.34l2.66-9.58l33.64,9.35c5.23,1.45,8.29,6.88,6.81,12.21c1.48-5.33,6.91-8.4,12.24-6.92l23.95,6.65
		l-2.66,9.58l-23.95-6.65l-0.7,2.5l23.95,6.65l-2.63,9.47L495.24,343.55z"/>
	<path class="st0" d="M502.21,367.6c5.1,2.16,7.5,8.08,5.34,13.18l-27.68-11.72c-4.99-2.12-7.39-8.04-5.23-13.14l-27.68-11.72
		c-5-2.12-7.39-8.04-5.28-13.03l32.25,13.66c4.99,2.12,7.44,7.94,5.28,13.03L502.21,367.6z"/>
	<path class="st0" d="M490.22,411.26l-60.07-35.16c-4.68-2.74-6.3-8.92-3.62-13.51l1.31-2.24c2.8-4.78,8.92-6.3,13.61-3.56
		l60.07,35.16l-5.02,8.58l-60.07-35.16l-1.31,2.24l60.07,35.16L490.22,411.26z"/>
	<path class="st0" d="M413.84,381.3l5.89-8.01l64.11,47.09l-5.89,8.01L413.84,381.3z"/>
	<path class="st0" d="M421.78,431.65l7.09-6.97l6.97,7.09l-7.09,6.97L421.78,431.65z"/>
	<path class="st0" d="M412.76,488.98c-4.43,2.93-10.63,1.75-13.69-2.86l-11.04-16.68c-2.99-4.52-1.66-10.69,2.77-13.63l2.17-1.43
		L371,421.21l8.39-5.55l43.92,66.33L412.76,488.98z M398.39,462.57l-2.17,1.43l11.04,16.68l2.17-1.44L398.39,462.57z"/>
	<path class="st0" d="M373.08,510.57l-34.59-71.64l8.85-4.27l17.29,35.82l2.34-1.13l-17.29-35.82l8.96-4.32l34.59,71.64l-8.96,4.32
		l-13.02-26.97l-2.34,1.13l13.02,26.97L373.08,510.57z"/>
	<path class="st0" d="M348.95,519.36c-5.05,1.64-10.71-1.15-12.42-6.42l-18.45-56.74c-1.68-5.16,1.22-10.85,6.27-12.5l2.58-0.84
		c5.27-1.71,10.86,1.22,12.53,6.38l18.45,56.74c1.71,5.27-1.12,10.82-6.38,12.53L348.95,519.36z M330,452.32l-2.58,0.84l18.45,56.74
		l2.58-0.84L330,452.32z"/>
	<path class="st0" d="M300.35,520.19l7.35-1.28l-11.95-68.58l9.8-1.71l11.95,68.58l7.35-1.28l1.71,9.8l-24.49,4.27L300.35,520.19z"
		/>
	<path class="st0" d="M276.11,531.67c-5.31,0.17-9.97-4.09-10.14-9.62l-1.91-59.64c-0.17-5.42,4.2-10.08,9.51-10.25l2.71-0.09
		c5.53-0.18,10.08,4.2,10.26,9.62l1.91,59.64c0.18,5.53-4.09,10.08-9.62,10.26L276.11,531.67z M276.6,462.01l-2.71,0.09l1.91,59.64
		l2.71-0.09L276.6,462.01z"/>
	<path class="st0" d="M231.6,499.15l1.05-9.77l2.36,0.25l3.19-29.66c0.58-5.39,5.56-9.4,10.84-8.84l2.58,0.28
		c5.62,0.6,9.4,5.56,8.82,10.95l-6.37,59.32c-0.59,5.5-5.33,9.43-10.95,8.82l-2.58-0.28c-5.28-0.57-9.3-5.43-8.71-10.94l1.59-14.83
		l9.77,1.05l-1.59,14.83l2.58,0.28l6.37-59.32l-2.58-0.28l-4.24,39.44L231.6,499.15z"/>
	<path class="st0" d="M198.31,501.68c1.36-5.37,6.85-8.64,12-7.33l-4.91,19.39l2.52,0.64l4.91-19.39l-2.52-0.64
		c-5.15-1.3-8.45-6.69-7.12-11.95l9.77-38.56l9.53,2.42l-9.77,38.56l2.52,0.64l9.77-38.56l9.75,2.47l-19.54,77.12l-12.27-3.11
		c-5.15-1.3-8.45-6.69-7.09-12.05L198.31,501.68z"/>
	<path class="st0" d="M169.49,512.24c-5.03-2.03-7.66-7.6-5.5-12.94l26.06-64.55l9.22,3.72l-14.89,36.88l2.31,0.93l14.89-36.88
		l9.22,3.72l-26.06,64.55c-2.16,5.34-7.71,7.61-12.94,5.5L169.49,512.24z M173.21,503.02l2.31,0.93l7.45-18.44l-2.31-0.93
		L173.21,503.02z"/>
	<path class="st0" d="M137.53,496.54c-4.61-2.64-6.35-8.71-3.6-13.51l9.93-17.37c2.69-4.71,8.8-6.29,13.41-3.66l2.26,1.29
		l19.74-34.54l8.73,4.99l-39.48,69.07L137.53,496.54z M154.64,471.83l-2.26-1.29l-9.93,17.37l2.26,1.29L154.64,471.83z"/>
	<path class="st0" d="M100.38,470.84l48.39-63.14l7.8,5.98l-24.2,31.57l2.06,1.58l24.2-31.57l7.89,6.05l-48.39,63.14l-7.89-6.05
		l18.22-23.77l-2.06-1.58l-18.22,23.77L100.38,470.84z"/>
	<path class="st0" d="M74.9,446.45l49.33-49.11c3.84-3.83,10.24-3.81,13.98-0.05l1.83,1.84c3.91,3.92,3.81,10.24-0.03,14.06
		l-17.7,17.62l-7.02-7.05l17.7-17.62l-1.83-1.84l-21.14,21.05l1.83,1.84c3.91,3.92,3.89,10.16,0.05,13.98l-21.22,21.13l-7.02-7.05
		l21.22-21.13l-1.83-1.84l-21.22,21.13L74.9,446.45z"/>
	<path class="st0" d="M80.97,389.22l5.55,8.25l-8.25,5.55l-5.55-8.25L80.97,389.22z"/>
	<path class="st0" d="M91.46,345.19l-1.01-2.39l-64.13,27.07l-3.82-9.06l64.13-27.07c5-2.11,10.88,0.19,12.98,5.19l4.88,11.56
		l-73.29,30.94c-2.11-5,0.19-10.88,5.29-13.03L91.46,345.19z"/>
	<path class="st0" d="M92.23,317.56l2.89,9.52l-76.13,23.1l-2.89-9.52L92.23,317.56z"/>
	<path class="st0" d="M10.69,317.31c-1-5.22,2.48-10.49,7.91-11.53l58.6-11.24c5.33-1.02,10.62,2.57,11.62,7.78l2.38,12.43
		l-78.13,14.99L10.69,317.31z M79.56,306.86l-0.51-2.66l-58.6,11.24l0.51,2.66L79.56,306.86z"/>
	<path class="st0" d="M31.38,280.73l-14.9,0.81l0.15,2.71l19.97-1.09c0.3,5.53-3.97,10.18-9.5,10.48l-9.93,0.54
		c-5.53,0.3-10.17-3.86-10.47-9.39l-0.15-2.71c-0.29-5.3,3.86-10.06,9.39-10.36l14.89-0.81L31.38,280.73z M46.97,292.55
		c-5.42,0.3-10.06-3.86-10.36-9.39l-0.68-12.53l9.82-0.54l0.68,12.53L76.21,281l-0.15-2.71l-24.94,1.36l-0.54-9.82l24.94-1.36
		c5.42-0.3,10.18,3.97,10.47,9.27l0.15,2.71c0.3,5.53-3.97,10.18-9.39,10.47L46.97,292.55z"/>
	<path class="st0" d="M7.17,246.73c0.42-5.29,5.17-9.46,10.69-9.02l59.48,4.69c5.41,0.43,9.56,5.29,9.14,10.58l-0.21,2.7
		c-0.44,5.52-5.29,9.56-10.7,9.13l-59.48-4.69c-5.52-0.43-9.57-5.17-9.13-10.7L7.17,246.73z M76.35,254.91l0.21-2.7l-59.48-4.69
		l-0.21,2.7L76.35,254.91z"/>
	<path class="st0" d="M15.83,198.14c1.34-5.37,6.71-8.69,12.08-7.35l67.53,16.84l-2.43,9.76l-67.53-16.84l-0.57,2.3l67.53,16.84
		l-2.38,9.54l-67.53-16.84l-0.63,2.52l67.53,16.84l-2.41,9.65l-67.53-16.84c-5.37-1.34-8.58-6.68-7.24-12.05L15.83,198.14z"/>
	<path class="st0" d="M28.53,162.98c2.17-4.97,7.8-7.45,13.09-5.14l63.81,27.8l-3.97,9.12l-36.46-15.89L64,181.15l36.46,15.89
		l-3.97,9.12l-63.81-27.8c-5.28-2.3-7.4-7.91-5.14-13.09L28.53,162.98z M37.65,166.95l-0.99,2.28l18.23,7.94l0.99-2.28L37.65,166.95
		z"/>
	<path class="st0" d="M69.31,149.25l1.35-2.22c2.76-4.54,8.87-6.11,13.51-3.3l33.99,20.66l-5.11,8.4l-33.99-20.66l-1.35,2.22
		l33.99,20.66l-5.22,8.59L38.49,142.3l5.22-8.59L69.31,149.25z M67.17,133.41c4.73,2.88,6.25,9.09,3.49,13.63l-25.59-15.55l5.11-8.4
		L67.17,133.41z"/>
	<path class="st0" d="M126.06,154.29l-6.02,7.92l-63.33-48.16l6.02-7.92L126.06,154.29z"/>
	<path class="st0" d="M78.42,88.11c3.64-3.87,9.94-4.15,13.98-0.36l50.74,47.66l-6.73,7.17L85.67,94.91l-1.86,1.98l50.74,47.66
		l-6.81,7.25L69.76,97.33L78.42,88.11z"/>
	<path class="st0" d="M132.94,79.66l6.16,7.67l-1.85,1.49l18.68,23.26c3.4,4.23,2.7,10.58-1.44,13.91l-2.03,1.63
		c-4.41,3.54-10.58,2.7-13.98-1.53l-37.37-46.52c-3.47-4.32-2.88-10.44,1.53-13.98l2.03-1.63c4.14-3.33,10.43-2.72,13.89,1.6
		l9.34,11.63l-7.67,6.16l-9.34-11.63l-2.03,1.63l37.37,46.52l2.03-1.63l-24.84-30.92L132.94,79.66z"/>
	<path class="st0" d="M170.7,68.62l-8.82,4.58l-4.58-8.82l8.82-4.58L170.7,68.62z"/>
</g>
</svg>
